<svg xmlns="http://www.w3.org/2000/svg" width="960" height="560" xml:space="preserve"><path fill="#FFF" d="M0 0h960v560H0z"/><g pointer-events="all" fill="none"><path d="M282.183 214.806v-22.225h414.872v22.225"/><path stroke="#000" stroke-miterlimit="10" d="M489.619 170.355v22.225m-207.436 22.226v-22.225h414.872v22.225"/></g><g pointer-events="all" fill="none"><path d="M167.353 303.707v-22.225h220.771v22.225"/><path stroke="#000" stroke-miterlimit="10" d="M277.738 259.256v22.227m-110.385 22.224v-22.225h220.771v22.225"/></g><g pointer-events="all" fill="none"><path d="M591.114 303.707v-22.225h220.771v22.225"/><path stroke="#000" stroke-miterlimit="10" d="M701.5 259.256v22.227m-110.386 22.224v-22.225h220.771v22.225"/></g><path pointer-events="all" fill="#FFFDED" stroke="#CCC" d="M439.982 122.941h98.531v44.451h-98.531v-44.451z"/><text transform="translate(472.209 151.834)" font-family="'MicrosoftYaHeiLight'" font-size="17.78">子集</text><path pointer-events="all" fill="#FFFDED" stroke="#CCC" d="M251.809 214.806h60.75v44.451h-60.75v-44.451z"/><text transform="translate(257.73 243.698)" font-family="'MicrosoftYaHei'" font-size="17.78">包含 a</text><path pointer-events="all" fill="#FFFDED" stroke="#CCC" d="M658.531 214.806h85.938v44.451h-85.938v-44.451z"/><text transform="translate(670.379 243.698)" font-family="'MicrosoftYaHeiUI'" font-size="17.78">不包含 a</text><path pointer-events="all" fill="#FFFDED" stroke="#CCC" d="M151.795 303.707h57.786v44.45h-57.786v-44.45z"/><text transform="translate(156.234 332.6)" font-family="'MicrosoftYaHeiUI'" font-size="17.78">包含 b</text><path pointer-events="all" fill="#FFFDED" stroke="#CCC" d="M343.673 303.707h87.419v44.45h-87.419v-44.45z"/><text transform="translate(356.262 332.6)" font-family="'MicrosoftYaHeiUI'" font-size="17.78">不包含 b</text><path pointer-events="all" fill="#FFFDED" stroke="#CCC" d="M561.479 303.707h57.785v44.45h-57.785v-44.45z"/><text transform="translate(565.92 332.6)" font-family="'MicrosoftYaHeiUI'" font-size="17.78">包含 b</text><path pointer-events="all" fill="#FFFDED" stroke="#CCC" d="M765.954 303.707h87.419v44.45h-87.419v-44.45z"/><text transform="translate(778.541 332.6)" font-family="'MicrosoftYaHeiUI'" font-size="17.78">不包含 b</text><g pointer-events="all" fill="none"><path d="M124.384 392.608v-22.227h103.718v22.227"/><path stroke="#000" stroke-miterlimit="10" d="M176.243 348.157v22.226m-51.859 22.225v-22.227h103.718v22.227"/></g><path pointer-events="all" fill="#FFFDED" stroke="#CCC" d="M94.75 392.608h71.862v44.449H94.75v-44.449z"/><text transform="translate(106.228 421.5)" font-family="'MicrosoftYaHeiUI'" font-size="17.78">包含 n</text><path pointer-events="all" fill="#FFFDED" stroke="#CCC" d="M178.465 392.608h99.272v44.449h-99.272v-44.449z"/><text transform="translate(196.98 421.5)" font-family="'MicrosoftYaHeiUI'" font-size="17.78">不包含 n</text><g pointer-events="all" fill="none"><path d="M336.265 392.608v-22.227h103.718v22.227"/><path stroke="#000" stroke-miterlimit="10" d="M388.124 348.157v22.226m-51.859 22.225v-22.227h103.718v22.227"/></g><path pointer-events="all" fill="#FFFDED" stroke="#CCC" d="M306.631 392.608h71.862v44.449h-71.862v-44.449z"/><text transform="translate(318.107 421.5)" font-family="'MicrosoftYaHeiUI'" font-size="17.78">包含 n</text><path pointer-events="all" fill="#FFFDED" stroke="#CCC" d="M390.346 392.608h99.273v44.449h-99.273v-44.449z"/><text transform="translate(408.86 421.5)" font-family="'MicrosoftYaHeiUI'" font-size="17.78">不包含 n</text><g pointer-events="all" fill="none"><path d="M538.515 392.608v-22.227h103.719v22.227"/><path stroke="#000" stroke-miterlimit="10" d="M590.373 348.157v22.226m-51.858 22.225v-22.227h103.719v22.227"/></g><path pointer-events="all" fill="#FFFDED" stroke="#CCC" d="M508.881 392.608h71.862v44.449h-71.862v-44.449z"/><text transform="translate(520.357 421.5)" font-family="'MicrosoftYaHeiUI'" font-size="17.78">包含 n</text><path pointer-events="all" fill="#FFFDED" stroke="#CCC" d="M592.597 392.608h99.272v44.449h-99.272v-44.449z"/><text transform="translate(611.111 421.5)" font-family="'MicrosoftYaHeiUI'" font-size="17.78">不包含 n</text><g pointer-events="all" fill="none"><path d="M750.396 392.608v-22.227h103.719v22.227"/><path stroke="#000" stroke-miterlimit="10" d="M802.255 348.157v22.226m-51.859 22.225v-22.227h103.719v22.227"/></g><path pointer-events="all" fill="#FFFDED" stroke="#CCC" d="M720.762 392.608h71.861v44.449h-71.861v-44.449z"/><text transform="translate(732.24 421.5)" font-family="'MicrosoftYaHeiUI'" font-size="17.78">包含 n</text><path pointer-events="all" fill="#FFFDED" stroke="#CCC" d="M804.478 392.608h99.272v44.449h-99.272v-44.449z"/><text transform="translate(822.992 421.5)" font-family="'MicrosoftYaHeiUI'" font-size="17.78">不包含 n</text><text transform="translate(56.25 237.031)" font-family="'MicrosoftYaHeiUI'" font-size="18">2¹</text><text transform="translate(56.25 325.932)" font-family="'MicrosoftYaHeiUI'" font-size="18">2²</text><text transform="translate(56.25 414.834)" font-family="'MicrosoftYaHeiUI'" font-size="18">2ⁿ</text><text transform="translate(56.25 370.383)" font-family="'MicrosoftYaHeiUI'" font-size="18">...</text></svg>