<svg xmlns="http://www.w3.org/2000/svg" width="960" height="560" xml:space="preserve"><path fill="#FFF" d="M0 0h960v560H0z"/><circle fill="#FFA07A" cx="233" cy="177" r="75"/><circle fill="#99F" cx="338" cy="177" r="75"/><path fill="#99607A" d="M308 177c0 20.98-8.61 39.94-22.5 53.55C271.61 216.94 263 197.98 263 177s8.61-39.939 22.5-53.55C299.39 137.061 308 156.02 308 177z"/><text transform="translate(228.333 182.668)" font-family="'MicrosoftYaHei'" font-size="14">A</text><text transform="translate(334.334 182.67)" font-family="'MicrosoftYaHei'" font-size="14">B</text><text transform="translate(271.667 182.668)" font-family="'MicrosoftYaHei'" font-size="14">A∩B</text><circle fill="#FFA07A" cx="591" cy="177" r="75"/><circle fill="#99F" cx="696" cy="177" r="75"/><path fill="#99607A" d="M666 177c0 20.98-8.61 39.94-22.5 53.55C629.61 216.94 621 197.98 621 177s8.61-39.939 22.5-53.55C657.39 137.061 666 156.02 666 177z"/><text transform="translate(586.166 182.668)" font-family="'MicrosoftYaHei'" font-size="14">A</text><text transform="translate(691.521 182.668)" font-family="'MicrosoftYaHei'" font-size="14">B</text><text transform="translate(514 83.168)" font-family="'MicrosoftYaHei'" font-size="14">A∪B</text><path d="M696 253.5c-19.66 0-38.246-7.4-52.5-20.868C629.246 246.1 610.66 253.5 591 253.5c-42.183 0-76.5-34.318-76.5-76.5s34.317-76.5 76.5-76.5c19.66 0 38.246 7.4 52.5 20.868C657.754 107.9 676.34 100.5 696 100.5c42.183 0 76.5 34.318 76.5 76.5s-34.317 76.5-76.5 76.5zm-52.5-25.051 1.051 1.029C658.371 243.035 676.644 250.5 696 250.5c40.528 0 73.5-32.973 73.5-73.5s-32.972-73.5-73.5-73.5c-19.356 0-37.629 7.465-51.449 21.021l-1.051 1.029-1.051-1.029C628.629 110.965 610.356 103.5 591 103.5c-40.528 0-73.5 32.973-73.5 73.5s32.972 73.5 73.5 73.5c19.356 0 37.629-7.465 51.449-21.021l1.051-1.03z"/><path d="m534.56 106.439 4.14-2.639-10.44-15.46 2.48-1.68 10.49 15.52 3.78-2.41.55 12.39z"/><circle fill="#FFA07A" cx="233" cy="397" r="75"/><circle fill="#99F" cx="338" cy="397" r="75"/><text transform="translate(228.333 402.668)" font-family="'MicrosoftYaHei'" font-size="14">A</text><text transform="translate(334.334 402.67)" font-family="'MicrosoftYaHei'" font-size="14">B</text><text transform="translate(141 314.168)" font-family="'MicrosoftYaHei'" font-size="14">A-B</text><path d="m161.56 337.439 4.14-2.639-10.44-15.46 2.48-1.68 10.49 15.52 3.78-2.41.55 12.39z"/><path fill="#99607A" d="M308 397c0 20.98-8.61 39.94-22.5 53.55C271.61 436.94 263 417.98 263 397s8.61-39.939 22.5-53.55C299.39 357.061 308 376.02 308 397z"/><path d="M233 473.5c-42.182 0-76.5-34.317-76.5-76.5s34.318-76.5 76.5-76.5c20.146 0 39.165 7.771 53.551 21.879l1.092 1.072-1.093 1.07c-14.22 13.933-22.05 32.57-22.05 52.479s7.83 38.546 22.05 52.479l1.093 1.07-1.092 1.072C272.165 465.729 253.146 473.5 233 473.5zm0-150c-40.527 0-73.5 32.972-73.5 73.5s32.973 73.5 73.5 73.5c18.852 0 36.673-7.08 50.357-19.971C269.25 436.153 261.5 417.206 261.5 397s7.75-39.153 21.857-53.529C269.673 330.58 251.852 323.5 233 323.5z"/><path fill="#FFA07A" d="M469 327h350v150H469z"/><circle fill="#99F" cx="724" cy="402" r="50"/><text transform="translate(720 407.666)" font-family="'MicrosoftYaHei'" font-size="14">A</text><path fill="none" stroke="#000" stroke-width="3" stroke-miterlimit="10" d="M468.5 327.5v150h350v-150h-350zM724 451.55c-27.61 0-50-22.39-50-50s22.39-50 50-50 50 22.39 50 50-22.39 50-50 50z"/><text transform="translate(585 407.666)" font-family="'MicrosoftYaHei'" font-size="14">U</text><text transform="translate(508 352)" font-family="'MicrosoftYaHei'" font-size="14">CuA</text><path d="m285.5 232.65-1.05-1.029C269.65 217.12 261.5 197.723 261.5 177c0-20.721 8.15-40.119 22.95-54.621l1.05-1.029 1.05 1.029c14.8 14.502 22.95 33.9 22.95 54.621 0 20.723-8.15 40.12-22.95 54.621l-1.05 1.029zm0-107.08c-13.554 13.813-21 32.018-21 51.43 0 19.413 7.446 37.617 21 51.43 13.554-13.813 21-32.017 21-51.43 0-19.412-7.446-37.617-21-51.43z"/></svg>