<?xml version="1.0" encoding="utf-8"?>
<!-- Generator: Adobe Illustrator 26.4.1, SVG Export Plug-In . SVG Version: 6.00 Build 0)  -->
<svg version="1.1" id="_图层_1" xmlns="http://www.w3.org/2000/svg" xmlns:xlink="http://www.w3.org/1999/xlink" x="0px" y="0px"
	 viewBox="0 0 895.9 250.5" style="enable-background:new 0 0 895.9 250.5;" xml:space="preserve">
<style type="text/css">
	.st0{fill:#E13A1F;}
	.st1{fill:#01893D;}
</style>
<path class="st0" d="M334.6,142.1h-27.2v-37.7h-37.5V142h-27.4V45h27.3v36.3h37.5V45h27.4L334.6,142.1L334.6,142.1z"/>
<path class="st1" d="M98.6,90.7c-10.6-9.8-4.8-6.6,3.3-16.5c1.3-1.2,3-2.3,3.9-4c0.4-0.8,1.1-0.6,1.7,0c9.4,9.8,19.2,19.2,28.8,28.7
	c16.8,15.7,9.2,17.8,26.2,1.1c12.6-12.5,24.8-25.7,37.7-37.6c19.1-18.4,12-21.4,29.6-3.8c4.7,3.1-15.5,17.9-17.9,21.4
	c-16,15.9-32,31.5-47.8,47.6c-19.7,18.9-9.4,17.4-32.2-3.7"/>
<path class="st1" d="M127.3,119.2c-1.1-1.1-4.7-2.6-4.3-4.1c-8.8,8.4-16.9,17-25.6,25.5c-0.8,0.8-2.1,0.8-2.7-0.1
	c-7.3-8.3-15.8-15.4-23.3-23.6C60.7,106.9,51,95.8,40,85.8c-3.9-3,11-12.9,13.1-16.3C66.8,83.3,80.8,97.2,94.6,111
	c3.5,2.2,6-4.1,8.7-5.7c2-1.9,4.9-3.2,4.1-6.3"/>
<path class="st0" d="M705.9,39h26.2v53.5c0.7,0.3,0.9-0.2,1.1-0.5c8-7.8,16.1-15.7,24.1-23.6c1.2-1.2,2.3-1.7,4.1-1.7
	c9.5,0.1,19,0,29,0c-10.6,11-20.9,21.6-31.3,32.3c11.2,14.3,22.4,28.5,33.6,42.7c-0.4,0.6-1,0.3-1.4,0.3c-9.6,0-19.2,0-28.9,0
	c-1.1,0-1.8-0.4-2.5-1.2c-6.2-7.8-12.4-15.6-18.6-23.3c-0.5-0.6-0.8-1.3-1.3-1.5c-2.6,2.4-5,4.8-7.5,7.2c-0.6,0.6-0.4,1.3-0.4,1.9
	c0,5.6,0,11.1,0,16.8h-26.3L705.9,39L705.9,39z"/>
<path class="st0" d="M449.4,44.9c-6.1,6.6-11.9,12.9-17.6,19.1c-6.8,7.3-13.5,14.7-20.4,22c-1.4,1.5-1.5,2.3-0.2,4
	c13,16.7,25.9,33.5,38.8,50.2c0.4,0.5,0.7,1,1.1,1.5c-0.4,0.7-0.9,0.4-1.4,0.4c-9.6,0-19.1,0-28.7,0.1c-1.4,0-2-0.6-2.7-1.5
	c-8.5-10.8-17-21.6-25.5-32.4c-0.3-0.4-0.5-0.9-1.3-1.1c-1.8,2-3.6,4.3-5.8,6.1c-3.5,2.9-4.6,6.3-4.3,10.8c0.4,5.5,0.1,11,0.1,16.5
	c0,1-0.1,1.6-1.4,1.6c-8.4-0.1-16.7,0-25.1,0c-0.2,0-0.4-0.1-0.5-0.1c-0.5-0.6-0.3-1.3-0.3-2c0-7.8,0-15.6,0-23.4
	c0-1.3,0.4-2.2,1.2-3.2c19.6-21.1,39.3-42.1,58.7-63.4c3.6-3.9,7.1-5.6,12.3-5.2c6.9,0.5,13.9,0.1,20.8,0.1
	C447.8,44.9,448.4,44.9,449.4,44.9L449.4,44.9z"/>
<path class="st0" d="M582.3,115.5c-3.4-10.9-6.8-21.5-10.1-32.1c-0.6,0.5-0.7,1.3-0.9,1.9c-6,18.4-12.1,36.7-18,55.1
	c-0.4,1.4-1,1.8-2.4,1.8c-6.7-0.1-13.5,0-20.2,0c-0.5,0-1.1,0-1.9,0c1.4-4.7,2.8-9.2,4.2-13.8c8.3-27.6,17.8-54.8,26.7-82.2
	c0.4-1.1,0.9-1.4,2-1.3c7.4,0,14.9,0,22.3,0c1.1,0,1.6,0.2,2,1.4c3,9.9,6.1,19.8,9.1,29.7c0.2,0.7,0.3,1.4,0,2.2
	c-4.1,12.1-8.2,24.2-12.3,36.4C582.7,114.7,582.6,115,582.3,115.5L582.3,115.5z"/>
<path class="st0" d="M620.2,142.1h-26.5c1.1-3.3,2.1-6.5,3.2-9.7c9.3-28.6,18.7-57.2,28-85.8c0.5-1.5,1.1-1.9,2.6-1.8
	c7.4,0.1,14.7,0,22.1,0c0.6,0,1.2,0,2.2,0C641.2,77.4,630.7,109.7,620.2,142.1L620.2,142.1z"/>
<path class="st0" d="M827.1,142.1h-26.3V66.9h26.3V142.1z"/>
<path class="st0" d="M662.4,66.8h26.2V142h-26.2V66.8z"/>
<path class="st0" d="M491.7,44.9c9.3,0,18.3,0,27.3,0c0.8,0,1.2,0.3,1.4,1.1c3.2,10.3,6.4,20.6,9.7,30.9c0.2,0.6,0.2,1.2,0,1.8
	c-4.4,13.9-8.8,27.8-13.3,41.7c-0.1,0.2-0.2,0.4-0.5,0.8C508.1,95.7,499.9,70.4,491.7,44.9L491.7,44.9z"/>
<path class="st1" d="M134.7,73.8c3.9-3.8,7.8-7.1,11.2-10.8c2.3-2.5,4.7-4.7,7-7.2c2.4-2.5,5-4.8,7.6-7.2c0.2-0.2,0.4-0.4,0.6-0.7
	c1.3-1.9,2.8-1.9,4.3-0.3c3.3,3.5,6.6,6.9,10,10.2c0.7,0.7,1.8,1,1.7,2.3c-0.1,1-0.8,1.3-1.3,1.9c-2.2,2.2-4,4.8-6.4,6.9
	c-3.8,3.3-7.4,6.8-10.9,10.4c-2.3,2.4-4.6,4.9-7,7.2c-1.4,1.4-2.4,1.2-3.8-0.2c-3.5-3.5-7-6.8-10.5-10.3
	C136.4,75.4,136.1,74.3,134.7,73.8L134.7,73.8z"/>
<path class="st0" d="M354.4,85.5V45h27.2c0,2.6-0.2,5.2,0,7.8c0.2,2.8-0.8,4.8-2.6,6.8c-7.6,8-15,16.2-22.5,24.4
	C355.9,84.5,355.5,85.3,354.4,85.5L354.4,85.5z"/>
<path class="st0" d="M814.1,58.5c-4.2-0.1-8-0.9-11.3-3.6c-7.5-6.1-6.6-17.8,2-22.3c6.5-3.4,13.2-3.1,19.5,0.8
	c7.6,4.8,7.4,16.1,0.6,21.5C821.7,57.5,818,58.4,814.1,58.5L814.1,58.5z"/>
<path class="st0" d="M677.4,58.5c-7.8,0-12.9-1.9-16.1-7.1c-3.9-6.4-1.7-15.1,5-18.6c6.5-3.5,13.2-3.3,19.6,0.6
	c7.4,4.6,7.2,14.2,2.7,19.7C685.1,57.1,680.6,58.4,677.4,58.5L677.4,58.5z"/>
<path class="st0" d="M418,194v3.1h10.3c0.3,1.1,0.2,2.2,0.1,3.4H420c2.7,3.6,5.6,6.4,9.3,8.6c-0.9,1-1.7,1.9-2.6,2.8
	c-3.5-2.2-5.9-5.5-8.6-9v10.8c-1.3,0.4-2.5,0.1-3.8,0.2v-11c-2.9,3.9-5.8,7.2-9.7,9.4c-0.7-0.9-1.5-1.8-2.4-2.8c4-2.2,7.2-5,9.9-8.9
	h-8.5c-0.4-1.2-0.2-2.3-0.2-3.5h10.5c0.5-1.1,0.3-2,0.1-3.1h-8.5v-16H426v16H418L418,194z M414.3,187.5h-5.4
	c0.1,1.2-0.2,2.4,0.2,3.5c1.8,0,3.5,0.2,5.2-0.1C414.5,189.8,414.5,188.8,414.3,187.5L414.3,187.5z M414.4,184.4c0-0.9,0-1.7,0-2.5
	c0-0.7-0.3-1-1-1c-1.5,0-2.9,0-4.4,0v3.5H414.4L414.4,184.4z M422.7,187.6c-1.6-0.2-3.2-0.2-4.8,0c0,1.3-0.2,2.4,0.1,3.5
	c1.6,0,3.2,0.2,4.7-0.1L422.7,187.6L422.7,187.6z M422.8,184.4c-0.1-1.3,0.3-2.4-0.4-3.5c-1.5,0.2-3-0.2-4.5,0.2v3.3H422.8
	L422.8,184.4z"/>
<path class="st0" d="M466.9,203c0,1.1-0.1,2.2-0.2,3.5h-7.2v7.3h-4v-7.2H448v-3.7h7.4V192c-2.3,4.1-4.9,7.4-7.7,10.5
	c-2.1,1.8-4,3.7-6.6,5.1c-0.9-0.9-1.7-1.9-2.7-3c3.3-1.9,6.1-4.2,8.5-7s4.5-5.7,6.3-9.2h-13.3v-3.7h15.5v-8.1c1.4-0.4,2.6-0.1,4-0.3
	v8.3h15.9v3.7h-13.5c3.6,6.9,8.4,12.2,15,16c-0.9,1-1.8,2.1-2.7,3.2c-2.6-1.2-4.6-3.2-6.7-4.9c-2.9-3.1-5.4-6.4-7.7-10.5v10.7
	C462.1,203.1,464.5,202.5,466.9,203L466.9,203z"/>
<path class="st0" d="M640.8,212.6v-3.3h11.8v-5h-8.7v-3.4h8.6c0.4-1.5,0.2-2.8,0.2-4.3h-8.4v-18.4H665v18.2h-8.3
	c-0.3,1.5-0.2,2.8-0.1,4.3h9v3.4h-9c-0.2,1.7-0.2,3.2-0.1,4.9h10.3v3.4L640.8,212.6L640.8,212.6z M652.8,188.8h-5.3
	c0,1.6-0.3,3,0.1,4.4h5.2V188.8z M661.4,188.8c-1.8-0.1-3.5-0.2-5.3,0.1c0,1.6-0.3,3,0.2,4.6c1.8-0.1,3.4,0.2,5.1-0.2V188.8z
	 M656.3,185.7c1.7,0,3.4,0.2,5.2-0.2c0-1.5,0.2-2.9-0.2-4.2h-5.2C656.1,182.8,656,184.2,656.3,185.7L656.3,185.7z M647.6,185.6h5.2
	v-4.4c-1.8,0-3.5-0.2-5.3,0.1C647.5,182.8,647.4,184.2,647.6,185.6z"/>
<path class="st0" d="M345.8,183.4h14.4v-7.1h3.9v7h14.7v19.5c-1.1,0.4-2.4,0.2-3.7,0.1c-0.1-0.7-0.1-1.3-0.2-2h-10.6v12.7
	c-1.4,0.3-2.6,0.2-4,0.1V201h-10.6c-0.1,0.8-0.1,1.4-0.2,2.2h-3.6L345.8,183.4L345.8,183.4z M349.7,187.1v9.9h10.5v-9.9H349.7z
	 M364.3,187.1v9.9h10.5v-9.9H364.3z"/>
<path class="st0" d="M583.4,183h6.3c0.4-1.3,0.1-1.9-1.2-1.8c-2,0-4.1,0-6.2,0v-2.6h7.2c0.6-0.8,0.2-1.6,0.5-2.3h2.9
	c0.5,0.6,0.1,1.3,0.5,2.1h7.2c0.5,1,0.3,1.8,0.2,2.7h-7.1c-0.5,0.6-0.5,1.1-0.2,1.8h6.4c0.6,0.9,0.1,1.7,0.5,2.6
	c2.9-2.6,4.3-5.9,5.5-9.4c1.1,0.3,2.2,0.5,3.3,0.8c-0.4,1.1-0.7,2.2-1.2,3.4h10.5c0.5,1.1,0.2,2,0.3,3.2c-2.6-0.9-3,0.9-3.7,2.5
	c-0.7,1.7-1.6,3.4-2.9,4.9c2,1.9,4.4,2.9,7,3.9c-0.7,1-1.3,1.9-2,2.9c-2.8-0.8-5.1-2.4-7.5-4.3c-2.5,1.7-5,3.3-7.9,4.2
	c-0.8-0.9-1.5-1.8-2.4-2.9c-0.3,0.6-0.6,1.1-0.8,1.5c-2-1-3.3-2.4-5.5-3.1v4.2c-1.2,0.2-2.2,0.2-3.3,0v-4.2
	c-2.3,1.5-3.9,3.4-6.3,4.3c-0.6-0.7-1.3-1.4-2-2.2c2.3-1.3,4.6-2.4,6.7-4.6h-4.9L583.4,183L583.4,183z M600.3,194.8
	c2.6-0.7,5-1.9,7.1-3.7c-1-1.5-2-3-2.9-4.5c-1,0.6-1.4,1.7-2.3,2c-0.8-0.4-1.1-1.4-2.2-1.7v3.8h-5c1.4,1.1,2.8,1.8,4.2,2.5
	c0.5,0.2,1.2,0.3,0.8,1.2c-0.1,0.1-0.3,0.3-0.2,0.4C599.9,195.1,600.1,194.9,600.3,194.8L600.3,194.8z M606.4,183.6
	c0.9,2.1,1.9,3.6,3.3,5.1c1.2-1.6,2.2-3.1,2.4-5.1H606.4z M597,185.4c-1.3-0.1-2.5-0.2-3.6,0.1c-0.2,0.9-0.2,1.8,0,2.7
	c1.2,0.1,2.4,0.3,3.6-0.1V185.4L597,185.4z M586.4,185.4v2.8c1.2,0.1,2.4,0.3,3.5-0.2c0-0.9,0.2-1.8-0.2-2.6
	C588.6,185.3,587.6,185.3,586.4,185.4L586.4,185.4z"/>
<path class="st0" d="M263.5,187.9h19.7v8.1h3v3.3c-1,0.5-2.2,0-3.4,0.4c-0.1,1.7-0.2,3.4-0.4,5.1c1.2,0.6,2.4,0,3.5,0.4v2.8
	c-0.2,0.1-0.3,0.2-0.5,0.2c-2.4-0.3-3.9,0.2-4.3,3c-0.2,1.6-1.8,2.5-3.5,2.6c-1.6,0.1-3.2,0-5,0c-0.3-1-0.6-1.9-0.9-2.8
	c2.1-0.9,5.5,1.6,6.5-2.8c-4.5,0-8.9,0-13.2,0c-1.1,0-0.8,1.1-1.2,1.8c-1.1,0.1-2.2-0.1-3.4-0.3c0.5-3.3,1.1-6.6,1.6-10.1h-3.5
	c-0.5-1.2-0.1-2.2-0.3-3.4h4.1C263.1,193.2,263.4,190.5,263.5,187.9L263.5,187.9L263.5,187.9z M278.8,204.9c0.4-1.9,0.5-3.6,0.5-5.4
	h-5.4c-0.2,1.8-0.4,3.5-0.6,5.4H278.8L278.8,204.9z M279.7,191.1h-5c-0.2,1.8-0.6,3.5-0.3,5.2c6.4,0.3,4.8,0.6,5.3-4.4
	C279.8,191.7,279.7,191.4,279.7,191.1L279.7,191.1z M264.9,205c1.6,0,2.9,0,4.2,0c0.7,0,1-0.3,1.1-1c0.1-1.5,0.3-2.9,0.5-4.5h-5
	C265.4,201.3,265.2,203,264.9,205z M271.4,191.2c-3.1-0.4-4.9,0.8-5.2,3.6c0,0.4,0,0.7,0,1.2c1.5,0.2,3.1,0.1,4.7,0
	C271.1,194.4,271.3,192.8,271.4,191.2L271.4,191.2z"/>
<path class="st0" d="M322.6,213.8c-0.9-2.3-2.6-3.4-5.1-3.4h-6.9c-0.7,0.5-0.1,1.3-0.7,1.9H307v-10.6h15.3v8.7
	c1.6,0.3,3.1,0.2,4.7-0.1v-10.9h-24.7V214h-3.6v-17.7H331c0,3,0,6.1,0,9.1c0,1.6,0,3.1,0,4.7c-0.1,2.4-0.9,3.3-3.2,3.6
	C326.1,213.9,324.4,213.9,322.6,213.8L322.6,213.8z M319,204.3h-8.6c-0.1,1.2-0.2,2.3,0.1,3.3h8.6
	C319.2,206.4,319.2,205.4,319,204.3z"/>
<path class="st0" d="M216.1,176.9h4V189H235v3.7h-14.6v15.4h17.5v3.7h-36.6v-3.6h14.9L216.1,176.9L216.1,176.9z"/>
<path class="st0" d="M486.5,192.5h7.9v-7.2c-1.8-0.6-2.7,0.1-3.3,1.7c-0.5,1.4-1.2,2.7-2.2,4c-1-0.7-1.9-1.4-3-2.2
	c2.6-3.8,3.9-8.1,4.9-12.5c1.3,0.3,2.3,0.5,3.5,0.7c-0.3,1.5-0.6,2.9-1,4.5h11.1v3.6h-6v7.4h7.1v3.6h-7.2c-0.8,1.6-0.4,2.7,0.7,3.8
	c2.3,2.3,4.5,4.9,6.7,7.3c-0.9,1.1-1.7,2.1-2.6,3.2c-2.1-2.7-4-5.4-6.4-7.9c-1.6,4.7-4.1,8.5-8.1,11.4c-0.9-1-1.7-1.9-2.6-2.9
	c4.9-3.7,7.5-8.6,8.1-14.8h-7.5C486.3,194.9,486.5,193.8,486.5,192.5L486.5,192.5z"/>
<path class="st0" d="M602.1,207.2v2.8h16.7v3.1H582v-2.9h6.2v-6.5c1.2-0.5,2.3-0.2,3.6-0.3v6.6h6.5v-8.2h-13.6
	c-0.4-1-0.2-1.9-0.2-2.9H616c0.3,0.9,0.1,1.7,0.1,2.8h-14v2.6h11c0.3,1,0.2,1.8,0.1,2.9L602.1,207.2L602.1,207.2z"/>
<path class="st0" d="M521.7,179.8v32.4h-3.4c-0.5-0.7,0-1.6-0.4-2.4h-7.2c-0.5,0.8,0,1.8-0.4,2.8H507v-32.7h14.7V179.8z M518,183.4
	h-7.3V206h7.3V183.4z"/>
<path class="st0" d="M550.2,179h18.7v18.4h-18.7V179z M553.9,193.9h11v-11.2h-11V193.9z"/>
<path class="st0" d="M629.7,209.9c-0.3-1.3-0.6-2.5-0.8-3.8c0.8-0.3,1.7-0.6,2.5-0.8c3.3-0.9,2.7-0.4,2.8-3.7c0-2.4,0-4.9,0-7.3
	c-1.5-0.6-2.8-0.1-4.3-0.4c-0.3-1.1-0.2-2.1-0.1-3.4h4.4c0-1.5,0-2.8,0-4.2s0-2.6,0-4.1h-4.7v-3.4H642v3.3h-4.3v8.1
	c1.1,0.6,2.4,0,3.7,0.4c0.2,1,0.1,2,0.1,3.1c-1.2,0.6-2.5-0.1-3.8,0.5v9.1c1.4-0.4,2.7-0.8,3.9-1.2c0.2,0.1,0.3,0.2,0.3,0.3
	c0.5,2.1-0.3,3.4-2.3,4.1C636.5,207.6,633.2,208.7,629.7,209.9L629.7,209.9z"/>
<path class="st0" d="M312.6,180v-3.6h3.9v3.5h15.8c0.3,1.2,0.2,2.1,0.1,3.2H297V180H312.6L312.6,180z"/>
<path class="st0" d="M325.7,185.3v8.4h-21.9v-8.4H325.7z M307.4,191h14.5c0.1-1.1,0.2-2.1-0.1-3.2h-14.4V191L307.4,191z"/>
<path class="st0" d="M539.5,212.8c-0.7-0.8-1.3-1.5-2.2-2.4c2.4-1.8,2.3-4.6,2.2-7.5c0-3.4,0-6.8,0-10.4h-5.3V189h8.9v15.7
	c1.6-0.6,2.6-1.9,4.1-2.7c0,0.1,0.1,0.3,0.2,0.4c0.9,1.8,0.5,3.3-1,4.6C544.1,208.9,541.8,210.8,539.5,212.8L539.5,212.8z"/>
<path class="st0" d="M396.6,212.3c-0.8-0.7-1.6-1.4-2.4-2.1c2-1.9,2.4-4.2,2.4-6.8c-0.1-3.7,0-7.3,0-11.2h-5.1
	c-0.3-1.2-0.2-2.2-0.1-3.3h8.7v15.4c1.6-0.5,2.3-1.8,3.5-2.4c0.7,0.8,0.8,1.9,1.4,2.9C402.2,207.4,399.4,209.8,396.6,212.3
	L396.6,212.3z"/>
<path class="st0" d="M263.5,187.8c-0.8,0.9-1.5,1.8-2.3,2.8c-1-0.7-2-1.4-3.1-2.1c3.2-3.5,5.2-7.7,6.5-12.2c1.2,0.2,2.4,0.5,3.7,0.7
	c-0.4,1.4-0.8,2.6-1.3,4.1h18.6v3.4c-5.7,0-11.4,0.2-17-0.1C265.6,184.3,264.2,185.3,263.5,187.8L263.5,187.8L263.5,187.8z"/>
<path class="st0" d="M255.2,198.4c0.2,0,0.2-0.1,0.3,0c1.9,1.1,2.4,2.6,1.6,4.6c-1.3,3.5-2.9,6.9-4.7,10.4c-1.1-0.7-2.2-1.3-3.4-2
	C251.5,207.1,253.4,202.7,255.2,198.4L255.2,198.4z"/>
<path class="st0" d="M546.8,211.7c3-2.9,4.7-6.4,6-10.4c1.3,0.3,2.5,0.6,3.8,0.9c-1.4,4.3-3.3,8.2-6.4,11.6
	C549.1,213.1,548,212.5,546.8,211.7L546.8,211.7z"/>
<path class="st0" d="M571.1,212.1c-1.3,0.5-2.5,0.9-3.8,1.4c-1.3-3.8-3.1-7.4-5.2-10.9c0.6-0.8,1.7-0.9,2.5-1.3
	c0.7-0.4,1.1-0.1,1.5,0.6C568,205.2,569.7,208.5,571.1,212.1L571.1,212.1z"/>
<path class="st0" d="M542.7,185.6c-2.1-2.1-4.2-4.2-6.2-6.3c0.5-0.7,1.3-1.4,2.3-2c2.3,1.7,4.3,3.6,6.3,5.8
	C544.5,184.1,543.4,184.7,542.7,185.6L542.7,185.6z"/>
<path class="st0" d="M401.7,183c-1,0.9-1.8,1.6-2.6,2.4c-1.9-2.1-3.8-4.2-5.6-6.2c0.5-0.9,1.4-1.4,2.3-2.2
	C397.9,178.7,399.8,180.7,401.7,183L401.7,183z"/>
<path class="st0" d="M259.1,180.9c-0.8,1-1.5,1.9-2.2,2.9c-2-1.8-4.2-3.1-6.6-4.5c0.7-0.9,1.3-1.8,2-2.7
	C254.7,177.7,257.1,178.9,259.1,180.9L259.1,180.9z"/>
<path class="st0" d="M250.4,187.4c2.4,1.1,4.7,2.2,6.8,3.9c-0.8,1-1.4,1.9-2.2,3c-2.1-1.6-4.2-3-6.6-4.1
	C248.9,189.1,249.6,188.3,250.4,187.4L250.4,187.4z"/>
</svg>
