<?xml version="1.0" encoding="utf-8"?>
<!-- Generator: Adobe Illustrator 26.4.1, SVG Export Plug-In . SVG Version: 6.00 Build 0)  -->
<svg version="1.1" id="_图层_1" xmlns="http://www.w3.org/2000/svg" xmlns:xlink="http://www.w3.org/1999/xlink" x="0px" y="0px"
	 viewBox="0 0 1280 640" style="enable-background:new 0 0 1280 640;" xml:space="preserve">
<style type="text/css">
	.st0{fill:#E13A1F;}
	.st1{fill:#01893D;}
</style>
<path class="st0" d="M526.7,336.9h-27.2v-37.7h-37.5v37.6h-27.4v-97h27.3V276h37.5v-36.3h27.4L526.7,336.9L526.7,336.9z"/>
<path class="st1" d="M290.6,285.5c-10.6-9.8-4.8-6.6,3.3-16.5c1.3-1.2,3-2.3,3.9-4c0.4-0.8,1.1-0.6,1.7,0
	c9.4,9.8,19.2,19.2,28.8,28.7c16.8,15.7,9.2,17.8,26.2,1.1c12.6-12.5,24.8-25.7,37.7-37.6c19.1-18.4,12-21.4,29.6-3.8
	c4.7,3.1-15.5,17.9-17.9,21.4c-16,15.9-32,31.5-47.8,47.6c-19.7,18.9-9.4,17.4-32.2-3.7"/>
<path class="st1" d="M319.3,314c-1.1-1.1-4.7-2.6-4.3-4.1c-8.8,8.4-16.9,17-25.6,25.5c-0.8,0.8-2.1,0.8-2.7-0.1
	c-7.3-8.3-15.8-15.4-23.3-23.6c-10.7-10-20.4-21.1-31.4-31.1c-3.9-3,11-12.9,13.1-16.3c13.7,13.8,27.7,27.7,41.5,41.5
	c3.5,2.2,6-4.1,8.7-5.7c2-1.9,4.9-3.2,4.1-6.3"/>
<path class="st0" d="M898,233.8h26.2v53.5c0.7,0.3,0.9-0.2,1.1-0.5c8-7.8,16.1-15.7,24.1-23.6c1.2-1.2,2.3-1.7,4.1-1.7
	c9.5,0.1,19,0,29,0c-10.6,11-20.9,21.6-31.3,32.3c11.2,14.3,22.4,28.5,33.6,42.7c-0.4,0.6-1,0.3-1.4,0.3c-9.6,0-19.2,0-28.9,0
	c-1.1,0-1.8-0.4-2.5-1.2c-6.2-7.8-12.4-15.6-18.6-23.3c-0.5-0.6-0.8-1.3-1.3-1.5c-2.6,2.4-5,4.8-7.5,7.2c-0.6,0.6-0.4,1.3-0.4,1.9
	c0,5.6,0,11.1,0,16.8h-26.3L898,233.8L898,233.8z"/>
<path class="st0" d="M641.4,239.6c-6.1,6.6-11.9,12.9-17.6,19.1c-6.8,7.3-13.5,14.7-20.4,22c-1.4,1.5-1.5,2.3-0.2,4
	c13,16.7,25.9,33.5,38.8,50.2c0.4,0.5,0.7,1,1.1,1.5c-0.4,0.7-0.9,0.4-1.4,0.4c-9.6,0-19.1,0-28.7,0.1c-1.4,0-2-0.6-2.7-1.5
	c-8.5-10.8-17-21.6-25.5-32.4c-0.3-0.4-0.5-0.9-1.3-1.1c-1.8,2-3.6,4.3-5.8,6.1c-3.5,2.9-4.6,6.3-4.3,10.8c0.4,5.5,0.1,11,0.1,16.5
	c0,1-0.1,1.6-1.4,1.6c-8.4-0.1-16.7,0-25.1,0c-0.2,0-0.4-0.1-0.5-0.1c-0.5-0.6-0.3-1.3-0.3-2c0-7.8,0-15.6,0-23.4
	c0-1.3,0.4-2.2,1.2-3.2c19.6-21.1,39.3-42.1,58.7-63.4c3.6-3.9,7.1-5.6,12.3-5.2c6.9,0.5,13.9,0.1,20.8,0.1
	C639.8,239.6,640.4,239.6,641.4,239.6L641.4,239.6z"/>
<path class="st0" d="M774.3,310.2c-3.4-10.9-6.8-21.5-10.1-32.1c-0.6,0.5-0.7,1.3-0.9,1.9c-6,18.4-12.1,36.7-18,55.1
	c-0.4,1.4-1,1.8-2.4,1.8c-6.7-0.1-13.5,0-20.2,0c-0.5,0-1.1,0-1.9,0c1.4-4.7,2.8-9.2,4.2-13.8c8.3-27.6,17.8-54.8,26.7-82.2
	c0.4-1.1,0.9-1.4,2-1.3c7.4,0,14.9,0,22.3,0c1.1,0,1.6,0.2,2,1.4c3,9.9,6.1,19.8,9.1,29.7c0.2,0.7,0.3,1.4,0,2.2
	c-4.1,12.1-8.2,24.2-12.3,36.4C774.8,309.5,774.6,309.8,774.3,310.2L774.3,310.2z"/>
<path class="st0" d="M812.2,336.9h-26.5c1.1-3.3,2.1-6.5,3.2-9.7c9.3-28.6,18.7-57.2,28-85.8c0.5-1.5,1.1-1.9,2.6-1.8
	c7.4,0.1,14.7,0,22.1,0c0.6,0,1.2,0,2.2,0C833.2,272.1,822.8,304.5,812.2,336.9L812.2,336.9z"/>
<path class="st0" d="M1019.1,336.9h-26.3v-75.2h26.3V336.9z"/>
<path class="st0" d="M854.5,261.5h26.2v75.2h-26.2V261.5z"/>
<path class="st0" d="M683.8,239.6c9.3,0,18.3,0,27.3,0c0.8,0,1.2,0.3,1.4,1.1c3.2,10.3,6.4,20.6,9.7,30.9c0.2,0.6,0.2,1.2,0,1.8
	c-4.4,13.9-8.8,27.8-13.3,41.7c-0.1,0.2-0.2,0.4-0.5,0.8C700.2,290.5,691.9,265.1,683.8,239.6L683.8,239.6z"/>
<path class="st1" d="M326.8,268.5c3.9-3.8,7.8-7.1,11.2-10.8c2.3-2.5,4.7-4.7,7-7.2c2.4-2.5,5-4.8,7.6-7.2c0.2-0.2,0.4-0.4,0.6-0.7
	c1.3-1.9,2.8-1.9,4.3-0.3c3.3,3.5,6.6,6.9,10,10.2c0.7,0.7,1.8,1,1.7,2.3c-0.1,1-0.8,1.3-1.3,1.9c-2.2,2.2-4,4.8-6.4,6.9
	c-3.8,3.3-7.4,6.8-10.9,10.4c-2.3,2.4-4.6,4.9-7,7.2c-1.4,1.4-2.4,1.2-3.8-0.2c-3.5-3.5-7-6.8-10.5-10.3
	C328.4,270.1,328.1,269,326.8,268.5L326.8,268.5z"/>
<path class="st0" d="M546.4,280.2v-40.5h27.2c0,2.6-0.2,5.2,0,7.8c0.2,2.8-0.8,4.8-2.6,6.8c-7.6,8-15,16.2-22.5,24.4
	C547.9,279.2,547.5,280,546.4,280.2L546.4,280.2z"/>
<path class="st0" d="M1006.1,253.2c-4.2-0.1-8-0.9-11.3-3.6c-7.5-6.1-6.6-17.8,2-22.3c6.5-3.4,13.2-3.1,19.5,0.8
	c7.6,4.8,7.4,16.1,0.6,21.5C1013.8,252.2,1010,253.1,1006.1,253.2L1006.1,253.2z"/>
<path class="st0" d="M869.5,253.2c-7.8,0-12.9-1.9-16.1-7.1c-3.9-6.4-1.7-15.1,5-18.6c6.5-3.5,13.2-3.3,19.6,0.6
	c7.4,4.6,7.2,14.2,2.7,19.7C877.1,251.9,872.6,253.1,869.5,253.2L869.5,253.2z"/>
<path class="st0" d="M610,388.8v3.1h10.3c0.3,1.1,0.2,2.2,0.1,3.4H612c2.7,3.6,5.6,6.4,9.3,8.6c-0.9,1-1.7,1.9-2.6,2.8
	c-3.5-2.2-5.9-5.5-8.6-9v10.8c-1.3,0.4-2.5,0.1-3.8,0.2v-11c-2.9,3.9-5.8,7.2-9.7,9.4c-0.7-0.9-1.5-1.8-2.4-2.8c4-2.2,7.2-5,9.9-8.9
	h-8.5c-0.4-1.2-0.2-2.3-0.2-3.5h10.5c0.5-1.1,0.3-2,0.1-3.1h-8.5v-16H618v16H610L610,388.8z M606.3,382.2h-5.4
	c0.1,1.2-0.2,2.4,0.2,3.5c1.8,0,3.5,0.2,5.2-0.1C606.5,384.5,606.5,383.5,606.3,382.2L606.3,382.2z M606.4,379.1c0-0.9,0-1.7,0-2.5
	c0-0.7-0.3-1-1-1c-1.5,0-2.9,0-4.4,0v3.5H606.4L606.4,379.1z M614.8,382.4c-1.6-0.2-3.2-0.2-4.8,0c0,1.3-0.2,2.4,0.1,3.5
	c1.6,0,3.2,0.2,4.7-0.1V382.4L614.8,382.4z M614.8,379.1c-0.1-1.3,0.3-2.4-0.4-3.5c-1.5,0.2-3-0.2-4.5,0.2v3.3H614.8L614.8,379.1z"
	/>
<path class="st0" d="M658.9,397.8c0,1.1-0.1,2.2-0.2,3.5h-7.2v7.3h-4v-7.2H640v-3.7h7.4v-10.9c-2.3,4.1-4.9,7.4-7.7,10.5
	c-2.1,1.8-4,3.7-6.6,5.1c-0.9-0.9-1.7-1.9-2.7-3c3.3-1.9,6.1-4.2,8.5-7s4.5-5.7,6.3-9.2h-13.3v-3.7h15.5v-8.1c1.4-0.4,2.6-0.1,4-0.3
	v8.3h15.9v3.7h-13.5c3.6,6.9,8.4,12.2,15,16c-0.9,1-1.8,2.1-2.7,3.2c-2.6-1.2-4.6-3.2-6.7-4.9c-2.9-3.1-5.4-6.4-7.7-10.5v10.7
	C654.2,397.9,656.5,397.2,658.9,397.8L658.9,397.8z"/>
<path class="st0" d="M832.8,407.4V404h11.8v-5h-8.7v-3.4h8.6c0.4-1.5,0.2-2.8,0.2-4.3h-8.4V373H857v18.2h-8.3
	c-0.3,1.5-0.2,2.8-0.1,4.3h9v3.4h-9c-0.2,1.7-0.2,3.2-0.1,4.9h10.3v3.4L832.8,407.4L832.8,407.4z M844.8,383.5h-5.3
	c0,1.6-0.3,3,0.1,4.4h5.2V383.5z M853.5,383.5c-1.8-0.1-3.5-0.2-5.3,0.1c0,1.6-0.3,3,0.2,4.6c1.8-0.1,3.4,0.2,5.1-0.2V383.5z
	 M848.3,380.5c1.7,0,3.4,0.2,5.2-0.2c0-1.5,0.2-2.9-0.2-4.2h-5.2C848.1,377.5,848,379,848.3,380.5L848.3,380.5z M839.6,380.4h5.2
	V376c-1.8,0-3.5-0.2-5.3,0.1C839.5,377.5,839.5,379,839.6,380.4z"/>
<path class="st0" d="M537.8,378.1h14.4V371h3.9v7h14.7v19.5c-1.1,0.4-2.4,0.2-3.7,0.1c-0.1-0.7-0.1-1.3-0.2-2h-10.6v12.7
	c-1.4,0.3-2.6,0.2-4,0.1v-12.7h-10.6c-0.1,0.8-0.1,1.4-0.2,2.2h-3.6L537.8,378.1L537.8,378.1z M541.8,381.9v9.9h10.5v-9.9H541.8z
	 M556.3,381.9v9.9h10.5v-9.9H556.3z"/>
<path class="st0" d="M775.5,377.8h6.3c0.4-1.3,0.1-1.9-1.2-1.8c-2,0-4.1,0-6.2,0v-2.6h7.2c0.6-0.8,0.2-1.6,0.5-2.3h2.9
	c0.5,0.6,0.1,1.3,0.5,2.1h7.2c0.5,1,0.3,1.8,0.2,2.7h-7.1c-0.5,0.6-0.5,1.1-0.2,1.8h6.4c0.6,0.9,0.1,1.7,0.5,2.6
	c2.9-2.6,4.3-5.9,5.5-9.4c1.1,0.3,2.2,0.5,3.3,0.8c-0.4,1.1-0.7,2.2-1.2,3.4h10.5c0.5,1.1,0.2,2,0.3,3.2c-2.6-0.9-3,0.9-3.7,2.5
	c-0.7,1.7-1.6,3.4-2.9,4.9c2,1.9,4.4,2.9,7,3.9c-0.7,1-1.3,1.9-2,2.9c-2.8-0.8-5.1-2.4-7.5-4.3c-2.5,1.7-5,3.3-7.9,4.2
	c-0.8-0.9-1.5-1.8-2.4-2.9c-0.3,0.6-0.6,1.1-0.8,1.5c-2-1-3.3-2.4-5.5-3.1v4.2c-1.2,0.2-2.2,0.2-3.3,0v-4.2
	c-2.3,1.5-3.9,3.4-6.3,4.3c-0.6-0.7-1.3-1.4-2-2.2c2.3-1.3,4.6-2.4,6.7-4.6h-4.9L775.5,377.8L775.5,377.8z M792.3,389.5
	c2.6-0.7,5-1.9,7.1-3.7c-1-1.5-2-3-2.9-4.5c-1,0.6-1.4,1.7-2.3,2c-0.8-0.4-1.1-1.4-2.2-1.7v3.8h-5c1.4,1.1,2.8,1.8,4.2,2.5
	c0.5,0.2,1.2,0.3,0.8,1.2c-0.1,0.1-0.3,0.3-0.2,0.4C792,389.9,792.1,389.6,792.3,389.5L792.3,389.5z M798.5,378.4
	c0.9,2.1,1.9,3.6,3.3,5.1c1.2-1.6,2.2-3.1,2.4-5.1H798.5z M789,380.1c-1.3-0.1-2.5-0.2-3.6,0.1c-0.2,0.9-0.2,1.8,0,2.7
	c1.2,0.1,2.4,0.3,3.6-0.1V380.1L789,380.1z M778.5,380.1v2.8c1.2,0.1,2.4,0.3,3.5-0.2c0-0.9,0.2-1.8-0.2-2.6
	C780.6,380,779.6,380,778.5,380.1L778.5,380.1z"/>
<path class="st0" d="M455.5,382.6h19.7v8.1h3v3.3c-1,0.5-2.2,0-3.4,0.4c-0.1,1.7-0.2,3.4-0.4,5.1c1.2,0.6,2.4,0,3.5,0.4v2.8
	c-0.2,0.1-0.3,0.2-0.5,0.2c-2.4-0.3-3.9,0.2-4.3,3c-0.2,1.6-1.8,2.5-3.5,2.6c-1.6,0.1-3.2,0-5,0c-0.3-1-0.6-1.9-0.9-2.8
	c2.1-0.9,5.5,1.6,6.5-2.8c-4.5,0-8.9,0-13.2,0c-1.1,0-0.8,1.1-1.2,1.8c-1.1,0.1-2.2-0.1-3.4-0.3c0.5-3.3,1.1-6.6,1.6-10.1h-3.5
	c-0.5-1.2-0.1-2.2-0.3-3.4h4.1C455.1,388,455.4,385.2,455.5,382.6L455.5,382.6L455.5,382.6z M470.8,399.6c0.4-1.9,0.5-3.6,0.5-5.4
	h-5.4c-0.2,1.8-0.4,3.5-0.6,5.4H470.8L470.8,399.6z M471.8,385.9h-5c-0.2,1.8-0.6,3.5-0.3,5.2c6.4,0.3,4.8,0.6,5.3-4.4
	C471.8,386.5,471.8,386.1,471.8,385.9L471.8,385.9z M456.9,399.8c1.6,0,2.9,0,4.2,0c0.7,0,1-0.3,1.1-1c0.1-1.5,0.3-2.9,0.5-4.5h-5
	C457.4,396,457.2,397.8,456.9,399.8z M463.4,386c-3.1-0.4-4.9,0.8-5.2,3.6c0,0.4,0,0.7,0,1.2c1.5,0.2,3.1,0.1,4.7,0
	C463.1,389.1,463.3,387.5,463.4,386L463.4,386z"/>
<path class="st0" d="M514.7,408.5c-0.9-2.3-2.6-3.4-5.1-3.4h-6.9c-0.7,0.5-0.1,1.3-0.7,1.9H499v-10.6h15.3v8.7
	c1.6,0.3,3.1,0.2,4.7-0.1v-10.9h-24.7v14.6h-3.6V391H523c0,3,0,6.1,0,9.1c0,1.6,0,3.1,0,4.7c-0.1,2.4-0.9,3.3-3.2,3.6
	C518.2,408.6,516.4,408.6,514.7,408.5L514.7,408.5z M511,399h-8.6c-0.1,1.2-0.2,2.3,0.1,3.3h8.6C511.2,401.1,511.2,400.1,511,399z"
	/>
<path class="st0" d="M408.1,371.6h4v12.1H427v3.7h-14.6v15.4h17.5v3.7h-36.6v-3.6h14.9L408.1,371.6L408.1,371.6z"/>
<path class="st0" d="M678.5,387.2h7.9V380c-1.8-0.6-2.7,0.1-3.3,1.7c-0.5,1.4-1.2,2.7-2.2,4c-1-0.7-1.9-1.4-3-2.2
	c2.6-3.8,3.9-8.1,4.9-12.5c1.3,0.3,2.3,0.5,3.5,0.7c-0.3,1.5-0.6,2.9-1,4.5h11.1v3.6h-6v7.4h7.1v3.6h-7.2c-0.8,1.6-0.4,2.7,0.7,3.8
	c2.3,2.3,4.5,4.9,6.7,7.3c-0.9,1.1-1.7,2.1-2.6,3.2c-2.1-2.7-4-5.4-6.4-7.9c-1.6,4.7-4.1,8.5-8.1,11.4c-0.9-1-1.7-1.9-2.6-2.9
	c4.9-3.7,7.5-8.6,8.1-14.8h-7.5C678.3,389.6,678.5,388.5,678.5,387.2L678.5,387.2z"/>
<path class="st0" d="M794.1,402v2.8h16.7v3.1H774V405h6.2v-6.5c1.2-0.5,2.3-0.2,3.6-0.3v6.6h6.5v-8.2h-13.6c-0.4-1-0.2-1.9-0.2-2.9
	H808c0.3,0.9,0.1,1.7,0.1,2.8h-14v2.6h11c0.3,1,0.2,1.8,0.1,2.9H794.1L794.1,402z"/>
<path class="st0" d="M713.8,374.5V407h-3.4c-0.5-0.7,0-1.6-0.4-2.4h-7.2c-0.5,0.8,0,1.8-0.4,2.8H699v-32.7h14.7V374.5z M710,378.1
	h-7.3v22.6h7.3V378.1z"/>
<path class="st0" d="M742.2,373.8H761v18.4h-18.7V373.8z M746,388.6h11v-11.2h-11V388.6z"/>
<path class="st0" d="M821.8,404.6c-0.3-1.3-0.6-2.5-0.8-3.8c0.8-0.3,1.7-0.6,2.5-0.8c3.3-0.9,2.7-0.4,2.8-3.7c0-2.4,0-4.9,0-7.3
	c-1.5-0.6-2.8-0.1-4.3-0.4c-0.3-1.1-0.2-2.1-0.1-3.4h4.4c0-1.5,0-2.8,0-4.2c0-1.4,0-2.6,0-4.1h-4.7v-3.4H834v3.3h-4.3v8.1
	c1.1,0.6,2.4,0,3.7,0.4c0.2,1,0.1,2,0.1,3.1c-1.2,0.6-2.5-0.1-3.8,0.5v9.1c1.4-0.4,2.7-0.8,3.9-1.2c0.2,0.1,0.3,0.2,0.3,0.3
	c0.5,2.1-0.3,3.4-2.3,4.1C828.5,402.4,825.2,403.5,821.8,404.6L821.8,404.6z"/>
<path class="st0" d="M504.6,374.8v-3.6h3.9v3.5h15.8c0.3,1.2,0.2,2.1,0.1,3.2H489v-3.1H504.6L504.6,374.8z"/>
<path class="st0" d="M517.8,380v8.4h-21.9V380H517.8z M499.4,385.8h14.5c0.1-1.1,0.2-2.1-0.1-3.2h-14.4V385.8L499.4,385.8z"/>
<path class="st0" d="M731.5,407.5c-0.7-0.8-1.3-1.5-2.2-2.4c2.4-1.8,2.3-4.6,2.2-7.5c0-3.4,0-6.8,0-10.4h-5.3v-3.5h8.9v15.7
	c1.6-0.6,2.6-1.9,4.1-2.7c0,0.1,0.1,0.3,0.2,0.4c0.9,1.8,0.5,3.3-1,4.6C736.1,403.6,733.8,405.5,731.5,407.5L731.5,407.5z"/>
<path class="st0" d="M588.7,407c-0.8-0.7-1.6-1.4-2.4-2.1c2-1.9,2.4-4.2,2.4-6.8c-0.1-3.7,0-7.3,0-11.2h-5.1
	c-0.3-1.2-0.2-2.2-0.1-3.3h8.7V399c1.6-0.5,2.3-1.8,3.5-2.4c0.7,0.8,0.8,1.9,1.4,2.9C594.2,402.1,591.4,404.5,588.7,407L588.7,407z"
	/>
<path class="st0" d="M455.5,382.5c-0.8,0.9-1.5,1.8-2.3,2.8c-1-0.7-2-1.4-3.1-2.1c3.2-3.5,5.2-7.7,6.5-12.2c1.2,0.2,2.4,0.5,3.7,0.7
	c-0.4,1.4-0.8,2.6-1.3,4.1h18.6v3.4c-5.7,0-11.4,0.2-17-0.1C457.6,379,456.2,380,455.5,382.5L455.5,382.5L455.5,382.5z"/>
<path class="st0" d="M447.2,393.1c0.2,0,0.2-0.1,0.3,0c1.9,1.1,2.4,2.6,1.6,4.6c-1.3,3.5-2.9,6.9-4.7,10.4c-1.1-0.7-2.2-1.3-3.4-2
	C443.5,401.9,445.4,397.5,447.2,393.1L447.2,393.1z"/>
<path class="st0" d="M738.8,406.5c3-2.9,4.7-6.4,6-10.4c1.3,0.3,2.5,0.6,3.8,0.9c-1.4,4.3-3.3,8.2-6.4,11.6
	C741.1,407.9,740,407.2,738.8,406.5L738.8,406.5z"/>
<path class="st0" d="M763.1,406.9c-1.3,0.5-2.5,0.9-3.8,1.4c-1.3-3.8-3.1-7.4-5.2-10.9c0.6-0.8,1.7-0.9,2.5-1.3
	c0.7-0.4,1.1-0.1,1.5,0.6C760,400,761.8,403.2,763.1,406.9L763.1,406.9z"/>
<path class="st0" d="M734.8,380.4c-2.1-2.1-4.2-4.2-6.2-6.3c0.5-0.7,1.3-1.4,2.3-2c2.3,1.7,4.3,3.6,6.3,5.8
	C736.5,378.9,735.5,379.5,734.8,380.4L734.8,380.4z"/>
<path class="st0" d="M593.8,377.8c-1,0.9-1.8,1.6-2.6,2.4c-1.9-2.1-3.8-4.2-5.6-6.2c0.5-0.9,1.4-1.4,2.3-2.2
	C589.9,373.5,591.8,375.5,593.8,377.8L593.8,377.8z"/>
<path class="st0" d="M451.1,375.6c-0.8,1-1.5,1.9-2.2,2.9c-2-1.8-4.2-3.1-6.6-4.5c0.7-0.9,1.3-1.8,2-2.7
	C446.8,372.5,449.1,373.6,451.1,375.6L451.1,375.6z"/>
<path class="st0" d="M442.4,382.1c2.4,1.1,4.7,2.2,6.8,3.9c-0.8,1-1.4,1.9-2.2,3c-2.1-1.6-4.2-3-6.6-4.1
	C440.9,383.9,441.6,383,442.4,382.1L442.4,382.1z"/>
</svg>
