<?xml version="1.0" encoding="UTF-8"?>
<svg id="_图层_1" data-name="图层 1" xmlns="http://www.w3.org/2000/svg" viewBox="0 0 895.88 250.5">
  <defs>
    <style>
      .cls-1 {
        fill: #01893d;
      }

      .cls-2 {
        fill: #fefefe;
      }

      .cls-3 {
        fill: #e13a1f;
      }
    </style>
  </defs>
  <path class="cls-2" d="M895.88,250.5H0V0H895.88V250.5Zm-632.4-62.64c.74-2.5,2.15-3.58,5-3.43,5.64,.28,11.31,.08,17.05,.08v-3.45h-18.56c.47-1.49,.86-2.75,1.29-4.11-1.34-.26-2.48-.49-3.71-.73-1.34,4.57-3.28,8.71-6.51,12.25,1.11,.76,2.11,1.44,3.13,2.14,.84-.99,1.59-1.88,2.34-2.78-.11,2.73-.43,5.42-1.02,8.26h-4.07c.16,1.23-.16,2.28,.29,3.44h3.46c-.56,3.48-1.09,6.79-1.62,10.12,1.23,.27,2.32,.41,3.41,.31,.37-.7,.04-1.77,1.16-1.77,4.34-.01,8.68,0,13.23,0-.97,4.36-4.36,1.88-6.49,2.77,.28,.93,.56,1.86,.85,2.82,1.73,0,3.35,.05,4.96-.01,1.73-.07,3.3-.98,3.51-2.59,.37-2.85,1.94-3.34,4.31-3.02,.15,.02,.33-.12,.49-.18v-2.81c-1.13-.42-2.3,.1-3.51-.45,.12-1.69,.23-3.4,.35-5.06,1.26-.42,2.43,.1,3.44-.38v-3.29h-3.05v-8.11c-6.62,0-13.17,0-19.72,0Zm184.15,14.63c.11,.14,.22,.27,.32,.41v3.68h7.53v7.21h4.03v-7.26h7.22c.06-1.29,.12-2.4,.17-3.51,.14-.17,.27-.35,.41-.52,2.15,1.76,4.15,3.73,6.72,4.93,.95-1.15,1.83-2.21,2.7-3.25-6.61-3.81-11.39-9.11-14.98-15.99h13.5v-3.71h-15.88v-8.31c-1.4,.15-2.63-.16-4.01,.26v8.15h-15.53v3.73h13.3c-1.74,3.51-3.82,6.5-6.26,9.25-2.45,2.76-5.27,5.08-8.53,6.99,.96,1.07,1.81,2.04,2.66,2.99,2.59-1.36,4.54-3.3,6.64-5.06Zm-112.99-60.41V44.99h-27.4v36.3h-37.54V44.98h-27.27v97.02h27.42v-37.65h37.55v37.73h27.25Zm-211.65-26.91c-.36,.99,.38,1.08,.75,1.45,1.05,1.05,2.47,1.56,3.59,2.61,1.05,.99,1.4,2.37,2.55,3.24,.65,.49,1.52,.4,2.09,1.34,.89,1.47,2.12,2.9,3.53,3.83,2.34,1.53,3.88,3.83,5.89,5.67,2.4,2.2,4.85,4.49,6.94,7.08,.53,.65,1.85,1.14,2.84,.16,4.34-4.33,8.67-8.66,12.99-13,4.97-4.99,9.76-10.15,15.02-14.85,1.75-1.56,3.5-3.14,4.88-5.19,1.55-2.29,4.11-3.8,6.08-5.84,3.32-3.45,6.75-6.81,10.2-10.13,3.93-3.78,7.78-7.67,11.63-11.55,2.09-2.11,4.31-4.14,6.5-6.15,2.37-2.18,4.79-4.43,6.88-6.96,1.31-1.59,2.93-2.92,4.42-4.36,1.21-1.17,1.36-3.08,.08-3.91-1.64-1.06-2.93-2.59-4.09-3.98-1.99-2.38-4.38-4.28-6.44-6.54-1.82-2-2.99-1.99-4.93-.14-4.89,4.66-9.75,9.36-14.18,14.46-.64,.74-1.46,.69-2.04,1.34-2.37,2.67-4.97,5.14-7.23,7.9-.74,.91-1.76,1.14-2.46,1.86-2.53,2.61-4.91,5.36-7.49,7.92-2.58,2.56-5.01,5.26-7.77,7.64-1.89,1.63-3.58,3.5-5.3,5.3-1.8,1.88-3.76,3.63-5.45,5.63-1.6,1.89-3.52,3.52-5.29,5.27-1.96,1.95-3.93,3.88-5.84,5.89-.47,.49-.84,.56-1.5,.65-1.68,.23-1.7-1.35-2.56-1.97-2.91-2.09-4.9-5.15-7.69-7.38-1.29-1.03-2.1-2.67-3.33-3.55-2.48-1.77-3.94-4.48-6.39-6.2-1.35-.95-2.16-2.53-3.35-3.54-1.81-1.55-3.45-3.22-5.13-4.89-4.68-4.65-9.46-9.21-13.97-14.03-.57-.61-1.25-.84-1.68-.03-.92,1.72-2.58,2.79-3.88,4.03-2.92,2.78-5.54,5.88-8.68,8.45-.82,.67-.76,1.95-.08,2.55,1.93,1.72,3.79,3.51,5.48,5.45,1.33,1.53,2.96,2.72,4.31,4.24,1.32,1.48,2.58,3.18,4.57,4.11-.27,.96,.46,2.13-.36,2.97-1.18,1.19-2.56,2.18-3.77,3.34-1.88,1.81-3.73,3.66-5.52,5.56-.84,.89-2.31,1.01-3.15,.13-1.93-2.01-3.83-4.04-5.84-5.97-1.72-1.65-3.5-3.29-5.16-4.96-1.46-1.46-3.12-2.81-4.41-4.5-1.22-1.59-2.81-2.9-4.25-4.32-1.38-1.35-2.75-2.72-4.18-4.03-1.29-1.19-2.61-2.4-3.78-3.66-1.96-2.11-4.16-3.99-6.04-6.16-1.27-1.47-2.74-2.72-4.08-4.1-1.23-1.27-1.98-3.08-3.78-3.82-1.96,1.94-3.91,3.86-5.86,5.79-2.43,2.41-4.83,4.84-7.3,7.21-1.11,1.06-1.09,2.3,.1,3.29,1.38,1.15,2.93,2.21,3.97,3.63,1.71,2.34,4.16,3.9,5.97,6.13,1.08,1.33,2.8,2.19,3.75,3.58,1.19,1.75,2.98,2.79,4.28,4.36,1.22,1.48,2.64,2.76,4.06,4.06,1.5,1.37,2.7,3.05,4.15,4.48,1.72,1.7,3.65,3.27,5.29,4.94,2.9,2.98,5.89,5.93,8.78,8.93,2.35,2.45,4.94,4.8,7.35,7.21,2.4,2.4,5.14,4.57,7.13,7.43,.61,.87,1.83,.94,2.67,.12,2.79-2.72,5.51-5.51,8.25-8.27,3.66-3.69,7.37-7.32,10.95-11.08,1.99-2.09,4.15-3.98,6.35-6.16ZM705.86,39.05v102.98h26.3c0-5.69,0-11.25,0-16.8,0-.67-.17-1.37,.43-1.94,2.49-2.35,4.96-4.71,7.53-7.16,.47,.19,.81,.91,1.26,1.48,6.24,7.76,12.46,15.54,18.64,23.35,.69,.87,1.37,1.24,2.49,1.23,9.62-.04,19.24-.02,28.86-.04,.44,0,.98,.26,1.41-.34-11.18-14.22-22.36-28.44-33.61-42.74,10.4-10.74,20.69-21.37,31.3-32.33-10.06,0-19.55,.05-29.03-.04-1.72-.02-2.88,.54-4.07,1.71-8,7.9-16.07,15.73-24.12,23.58-.28,.27-.46,.8-1.14,.51V39.05h-26.24Zm-256.42,5.84c-1.07,0-1.61,0-2.15,0-6.93,0-13.89,.36-20.79-.11-5.26-.36-8.75,1.32-12.32,5.25-19.39,21.29-39.1,42.28-58.72,63.36-.87,.93-1.24,1.9-1.23,3.17,.05,7.81,.02,15.63,.03,23.44,0,.67-.18,1.38,.3,2,.17,.04,.35,.12,.53,.12,8.37,.01,16.74,0,25.11,.04,1.26,0,1.4-.6,1.4-1.62-.03-5.5,.28-11.02-.1-16.5-.32-4.47,.77-7.91,4.28-10.79,2.18-1.79,3.94-4.1,5.78-6.07,.84,.2,1.02,.71,1.32,1.09,8.5,10.78,17.01,21.57,25.49,32.37,.72,.92,1.39,1.54,2.74,1.53,9.56-.07,19.12-.03,28.67-.05,.45,0,1.01,.25,1.37-.42-.35-.48-.7-1-1.07-1.49-12.93-16.75-25.84-33.52-38.84-50.22-1.28-1.65-1.15-2.53,.22-3.99,6.85-7.27,13.58-14.66,20.36-22.01,5.75-6.24,11.51-12.48,17.63-19.12Zm132.87,70.63c.27-.53,.44-.78,.53-1.06,4.09-12.12,8.17-24.24,12.27-36.36,.26-.76,.19-1.44-.04-2.18-3.07-9.88-6.13-19.76-9.12-29.67-.35-1.15-.86-1.4-1.95-1.4-7.43,.04-14.87,.04-22.3,0-1.08,0-1.64,.24-2,1.35-8.91,27.41-18.45,54.61-26.71,82.23-1.35,4.53-2.75,9.05-4.18,13.75,.75,0,1.31,0,1.86,0,6.75,0,13.49-.05,20.24,.04,1.45,.02,1.97-.46,2.41-1.82,5.96-18.39,11.99-36.75,18.02-55.12,.21-.63,.25-1.37,.88-1.89,3.34,10.62,6.66,21.2,10.1,32.13Zm37.87,26.6c10.53-32.44,21-64.74,31.55-97.24-.93,0-1.54,0-2.16,0-7.37,0-14.74,.05-22.11-.04-1.5-.02-2.15,.39-2.62,1.84-9.3,28.6-18.66,57.18-28.01,85.77-1.04,3.19-2.09,6.38-3.17,9.67h26.52Zm206.88-.04V66.86h-26.31v75.23h26.31Zm-164.64-75.26v75.23h26.19V66.82h-26.19Zm-170.75-21.95c8.25,25.54,16.42,50.85,24.65,76.35,.23-.42,.38-.63,.45-.85,4.42-13.91,8.83-27.83,13.27-41.74,.2-.63,.16-1.19-.03-1.8-3.24-10.28-6.48-20.56-9.68-30.85-.25-.79-.54-1.12-1.39-1.12-8.99,.02-17.97,.02-27.27,.02Zm-356.97,28.9c1.38,.57,1.72,1.65,2.45,2.37,3.5,3.44,7.05,6.83,10.53,10.29,1.38,1.37,2.33,1.59,3.77,.2,2.42-2.33,4.71-4.79,7.04-7.21,3.48-3.62,7.09-7.12,10.91-10.39,2.39-2.05,4.15-4.67,6.37-6.86,.56-.55,1.28-.91,1.34-1.9,.08-1.35-.99-1.64-1.71-2.35-3.39-3.36-6.7-6.79-10-10.24-1.55-1.62-3.04-1.58-4.32,.31-.18,.26-.36,.44-.59,.65-2.55,2.35-5.18,4.64-7.56,7.16-2.3,2.43-4.73,4.73-7.02,7.17-3.46,3.7-7.28,7.06-11.21,10.81Zm219.67,11.76c1.09-.2,1.55-1,2.11-1.6,7.5-8.12,14.92-16.32,22.52-24.35,1.9-2.01,2.89-3.99,2.65-6.78-.23-2.58-.05-5.19-.05-7.75h-27.22v40.48Zm459.71-27.03c3.9-.05,7.64-.95,10.86-3.52,6.79-5.41,7-16.79-.57-21.53-6.33-3.97-13.01-4.25-19.55-.82-8.57,4.49-9.47,16.21-2.01,22.31,3.28,2.68,7.07,3.5,11.27,3.57Zm-136.69-.05c3.18-.05,7.74-1.35,11.11-5.43,4.5-5.46,4.73-15.08-2.66-19.67-6.34-3.93-13.06-4.08-19.58-.63-6.63,3.51-8.88,12.25-4.95,18.63,3.21,5.2,8.26,7.13,16.07,7.1ZM418.02,194.02h8.13v-16.03h-20.55v16.09h8.51c.18,1.11,.31,2.06-.15,3.15h-10.48c0,1.2-.22,2.24,.22,3.47h8.45c-2.74,3.85-5.97,6.68-9.93,8.85,.86,1.01,1.61,1.89,2.35,2.76,3.93-2.24,6.81-5.45,9.7-9.4v10.96c1.3-.04,2.45,.2,3.77-.19v-10.8c2.73,3.55,5.15,6.79,8.65,9.03,.86-.93,1.69-1.83,2.6-2.82-3.65-2.14-6.54-4.96-9.29-8.56h8.47c.05-1.27,.2-2.3-.11-3.45h-10.32v-3.06Zm222.73,18.52h26.05v-3.4h-10.28c-.12-1.71-.19-3.18,.06-4.9h8.95v-3.44h-8.97c-.14-1.54-.22-2.83,.06-4.32h8.3v-18.25h-20.72v18.37h8.37c.05,1.5,.26,2.84-.17,4.32h-8.6v3.39h8.74v4.96h-11.78v3.29Zm-294.92-29.13v19.69h3.6c.08-.74,.15-1.41,.23-2.16h10.59v12.86c1.38,.09,2.6,.21,3.98-.12v-12.73h10.58c.08,.73,.15,1.33,.23,2,1.32,.02,2.54,.24,3.69-.14v-19.49h-14.66v-7.02h-3.85v7.1h-14.4Zm237.55-.39v7.76h4.89c-2.09,2.15-4.38,3.29-6.68,4.59,.72,.79,1.34,1.46,1.98,2.16,2.41-.89,4.06-2.82,6.34-4.28v4.21c1.13,.15,2.11,.18,3.3-.03v-4.22c2.12,.64,3.48,2.1,5.46,3.09,.22-.4,.49-.88,.82-1.48,.92,1.11,1.63,1.96,2.39,2.87,2.89-.88,5.42-2.43,7.87-4.16,2.32,1.84,4.65,3.47,7.46,4.29,.68-.98,1.29-1.87,1.97-2.87-2.63-.97-5.04-1.96-7.05-3.88,1.22-1.53,2.2-3.14,2.87-4.88,.65-1.69,1.14-3.39,3.7-2.54-.11-1.2,.19-2.11-.29-3.19h-10.49c.43-1.27,.78-2.3,1.16-3.44-1.17-.28-2.18-.52-3.32-.79-1.17,3.51-2.61,6.82-5.48,9.38-.37-.89,.13-1.76-.51-2.61h-6.36c-.28-.71-.31-1.23,.23-1.84h7.14c.12-.93,.26-1.71-.19-2.69h-7.19c-.4-.83,.04-1.6-.47-2.15h-2.89c-.32,.74,.07,1.49-.55,2.3h-7.24v2.58c2.12,0,4.18,.03,6.23-.01,1.32-.03,1.63,.54,1.18,1.83h-6.29Zm-260.74,30.75c1.71,.15,3.46,.09,5.18-.19,2.32-.38,3.09-1.3,3.17-3.65,.05-1.56,.02-3.12,.02-4.69,0-3.04,0-6.07,0-9.09h-32.2v17.7h3.62v-14.61h24.68v10.94c-1.6,.26-3.07,.34-4.71,.05v-8.67h-15.33v10.61h2.94c.51-.6-.07-1.38,.66-1.85h6.85q3.76,0,5.11,3.45Zm-106.5-36.93v31.39h-14.87v3.61h36.59v-3.72h-17.47v-15.43h14.59v-3.71h-14.79v-12.15h-4.04Zm270.32,15.63c.04,1.31-.18,2.41,.17,3.66h7.55c-.58,6.2-3.24,11.07-8.11,14.76,.9,1.01,1.72,1.93,2.58,2.9,3.97-2.82,6.45-6.69,8.1-11.36,2.4,2.48,4.22,5.23,6.36,7.9,.9-1.11,1.71-2.11,2.57-3.18-2.23-2.46-4.36-4.99-6.69-7.32-1.14-1.14-1.5-2.18-.72-3.83h7.21v-3.58h-7.08v-7.36h5.95v-3.56h-11.12c.35-1.6,.66-2.98,1-4.52-1.18-.25-2.25-.47-3.5-.74-.96,4.49-2.21,8.77-4.85,12.54,1.03,.75,1.97,1.43,2.97,2.16,.98-1.25,1.71-2.56,2.2-3.96,.57-1.62,1.49-2.37,3.29-1.72v7.21h-7.88Zm115.63,14.69h11.14c.07-1.07,.22-1.91-.13-2.9h-10.98v-2.61h14.01c.04-1.1,.2-1.96-.09-2.81h-31.58c0,1-.2,1.86,.2,2.87h13.6v8.2h-6.51v-6.57c-1.25,.13-2.35-.23-3.59,.31v6.46h-6.22v2.94h36.8v-3.07h-16.65v-2.81Zm-80.36-27.34h-14.76v32.73h3.34c.4-1-.13-1.99,.39-2.8h7.19c.39,.87-.13,1.75,.41,2.44h3.43v-32.37Zm28.42-.8v18.38h18.65v-18.38h-18.65Zm79.54,30.87c3.55-1.19,6.8-2.27,10.05-3.36q2.97-.99,2.26-4.09c-.02-.09-.18-.16-.35-.3-1.23,.37-2.52,.75-3.92,1.17v-9.08c1.24-.57,2.55,.1,3.75-.48,.08-1.06,.19-2.1-.06-3.09-1.27-.4-2.56,.18-3.67-.37v-8.08h4.32v-3.29h-12.71v3.36h4.72c0,1.47,0,2.76,0,4.06s0,2.69,0,4.18h-4.37c-.05,1.25-.24,2.34,.11,3.39,1.42,.26,2.81-.18,4.27,.37,0,2.46,.03,4.88,0,7.31-.05,3.29,.58,2.79-2.76,3.73-.82,.23-1.61,.52-2.46,.8,.29,1.28,.54,2.42,.84,3.76Zm-317.11-29.95h-15.65v3.09h35.4c.12-1.07,.2-2.05-.08-3.21h-15.8v-3.52h-3.87v3.64Zm13.1,5.33h-21.85v8.36h21.85v-8.36Zm213.79,27.47c2.38-1.98,4.63-3.85,6.88-5.72q2.33-1.92,1.05-4.6c-.08-.16-.16-.32-.21-.42-1.49,.84-2.45,2.1-4.06,2.71v-15.73h-8.86v3.45h5.29c0,3.59-.04,7.01,.01,10.42,.04,2.82,.15,5.63-2.25,7.46,.82,.93,1.48,1.67,2.15,2.42Zm-142.84-.45c2.77-2.47,5.55-4.94,8.33-7.42-.57-1.04-.71-2.13-1.41-2.93-1.2,.64-1.91,1.94-3.48,2.43v-15.42h-8.72c-.09,1.12-.17,2.1,.09,3.28h5.11c0,3.88-.08,7.55,.03,11.22,.08,2.55-.38,4.83-2.37,6.76,.82,.7,1.57,1.35,2.41,2.07Zm-141.4-13.9c-1.82,4.33-3.74,8.69-6.09,12.96,1.17,.7,2.25,1.35,3.35,2.02,1.75-3.51,3.32-6.89,4.67-10.37q1.17-3.04-1.65-4.64s-.11,0-.28,.03Zm291.6,13.27c1.2,.77,2.27,1.46,3.34,2.14,3.1-3.43,5.04-7.28,6.44-11.62-1.28-.3-2.47-.57-3.77-.88-1.34,3.9-3.03,7.42-6.02,10.35Zm24.28,.47c-1.43-3.68-3.07-6.94-4.98-10.08-.39-.65-.8-.94-1.49-.59-.8,.4-1.81,.41-2.45,1.26,2.08,3.45,3.84,7.04,5.16,10.87,1.31-.51,2.45-.95,3.76-1.45Zm-28.43-26.6c.72-.8,1.78-1.44,2.31-2.56-2.02-2.15-4.02-4.08-6.3-5.77-.92,.65-1.72,1.31-2.26,2.04,2.1,2.12,4.16,4.19,6.25,6.29Zm-140.98-2.53c-1.89-2.34-3.77-4.35-6.02-6.04-.82,.78-1.71,1.25-2.26,2.18,1.88,2.08,3.73,4.14,5.64,6.25,.86-.78,1.68-1.52,2.64-2.39Zm-142.61-2.15c-2.01-1.97-4.37-3.13-6.82-4.28-.68,.91-1.3,1.73-2,2.67,2.35,1.36,4.54,2.73,6.58,4.49,.75-.96,1.43-1.83,2.24-2.87Zm-8.66,6.59c-.83,.84-1.51,1.67-2.01,2.76,2.37,1.18,4.53,2.5,6.59,4.14,.74-1.01,1.44-1.95,2.19-2.96-2.02-1.75-4.36-2.86-6.77-3.94Z"/>
  <path class="cls-3" d="M334.64,142.08h-27.25v-37.73h-37.55v37.65h-27.42V44.98h27.27v36.3h37.54V44.99h27.4v97.09Z"/>
  <path class="cls-1" d="M98.55,90.69c-1.69-1.95-3.55-3.73-5.48-5.45-.67-.6-.73-1.88,.08-2.55,3.14-2.57,5.76-5.67,8.68-8.45,1.3-1.24,2.97-2.31,3.88-4.03,.43-.81,1.1-.58,1.68,.03,4.51,4.82,9.29,9.38,13.97,14.03,1.68,1.67,3.32,3.34,5.13,4.89,1.19,1.02,2,2.59,3.35,3.54,2.46,1.73,3.91,4.43,6.39,6.2,1.23,.88,2.03,2.51,3.33,3.55,2.79,2.23,4.78,5.29,7.69,7.38,.86,.62,.88,2.2,2.56,1.97,.66-.09,1.04-.16,1.5-.65,1.9-2,3.88-3.94,5.84-5.89,1.77-1.76,3.69-3.38,5.29-5.27,1.7-2.01,3.65-3.75,5.45-5.63,1.72-1.8,3.42-3.67,5.3-5.3,2.76-2.38,5.19-5.08,7.77-7.64,2.58-2.56,4.96-5.31,7.49-7.92,.7-.73,1.72-.96,2.46-1.86,2.26-2.76,4.85-5.24,7.23-7.9,.58-.65,1.39-.6,2.04-1.34,4.43-5.1,9.29-9.8,14.18-14.46,1.94-1.85,3.12-1.85,4.93,.14,2.06,2.26,4.46,4.17,6.44,6.54,1.16,1.39,2.45,2.91,4.09,3.98,1.28,.83,1.14,2.74-.08,3.91-1.49,1.44-3.11,2.77-4.42,4.36-2.09,2.53-4.51,4.78-6.88,6.96-2.19,2.01-4.41,4.04-6.5,6.15-3.85,3.88-7.7,7.77-11.63,11.55-3.45,3.32-6.88,6.68-10.2,10.13-1.97,2.05-4.53,3.55-6.08,5.84-1.39,2.05-3.14,3.63-4.88,5.19-5.26,4.7-10.05,9.86-15.02,14.85-4.32,4.34-8.65,8.68-12.99,13-.99,.98-2.31,.49-2.84-.16-2.1-2.58-4.54-4.87-6.94-7.08-2-1.83-3.55-4.13-5.89-5.67-1.42-.93-2.65-2.36-3.53-3.83"/>
  <path class="cls-1" d="M127.32,119.24c-1.13-1.05-2.54-1.56-3.59-2.61-.79-1.38-1.1-.46-.75-1.45-2.2,2.18-4.36,4.07-6.35,6.16-3.58,3.76-7.29,7.4-10.95,11.08-2.74,2.76-5.47,5.55-8.25,8.27-.84,.82-2.06,.75-2.67-.12-1.99-2.85-4.73-5.03-7.13-7.43-2.41-2.4-5-4.76-7.35-7.21-2.89-3-5.87-5.95-8.78-8.93-1.63-1.68-3.57-3.24-5.29-4.94-1.44-1.43-2.65-3.12-4.15-4.48-1.42-1.29-2.84-2.58-4.06-4.06-1.3-1.57-3.09-2.6-4.28-4.36-.95-1.4-2.67-2.25-3.75-3.58-1.81-2.23-4.25-3.78-5.97-6.13-1.04-1.42-2.58-2.48-3.97-3.63-1.19-.99-1.21-2.23-.1-3.29,2.47-2.37,4.87-4.8,7.3-7.21,1.95-1.93,3.9-3.85,5.86-5.79,1.8,.74,2.55,2.55,3.78,3.82,1.34,1.38,2.81,2.63,4.08,4.1,1.87,2.17,4.08,4.05,6.04,6.16,1.17,1.26,2.48,2.47,3.78,3.66,1.42,1.31,2.8,2.67,4.18,4.03,1.44,1.42,3.04,2.72,4.25,4.32,1.29,1.69,2.95,3.04,4.41,4.5,1.66,1.67,3.44,3.3,5.16,4.96,2.01,1.93,3.91,3.96,5.84,5.97,.84,.88,2.31,.76,3.15-.13,1.79-1.9,3.64-3.75,5.52-5.56,1.21-1.16,2.6-2.15,3.77-3.34,.82-.84,.1-2,.36-2.97"/>
  <path class="cls-3" d="M705.86,39.05h26.24v53.45c.68,.29,.87-.25,1.14-.51,8.05-7.85,16.12-15.68,24.12-23.58,1.19-1.17,2.35-1.72,4.07-1.71,9.48,.09,18.97,.04,29.03,.04-10.61,10.96-20.9,21.59-31.3,32.33,11.25,14.31,22.43,28.53,33.61,42.74-.42,.59-.96,.34-1.41,.34-9.62,.02-19.24,0-28.86,.04-1.11,0-1.8-.37-2.49-1.23-6.18-7.81-12.4-15.58-18.64-23.35-.45-.56-.79-1.29-1.26-1.48-2.57,2.45-5.05,4.82-7.53,7.16-.6,.56-.43,1.27-.43,1.94-.01,5.56,0,11.12,0,16.8h-26.3V39.05Z"/>
  <path class="cls-3" d="M449.44,44.89c-6.12,6.64-11.87,12.88-17.63,19.12-6.77,7.35-13.51,14.74-20.36,22.01-1.37,1.46-1.51,2.34-.22,3.99,13,16.7,25.91,33.47,38.84,50.22,.38,.49,.73,1,1.07,1.49-.36,.67-.92,.42-1.37,.42-9.56,.02-19.12-.02-28.67,.05-1.35,.01-2.02-.62-2.74-1.53-8.48-10.8-16.99-21.59-25.49-32.37-.3-.38-.49-.89-1.32-1.09-1.84,1.97-3.6,4.28-5.78,6.07-3.51,2.88-4.59,6.32-4.28,10.79,.39,5.47,.08,10.99,.1,16.5,0,1.01-.13,1.63-1.4,1.62-8.37-.05-16.74-.03-25.11-.04-.18,0-.36-.08-.53-.12-.48-.62-.3-1.34-.3-2-.01-7.81,.02-15.63-.03-23.44,0-1.28,.36-2.24,1.23-3.17,19.62-21.08,39.33-42.07,58.72-63.36,3.57-3.92,7.07-5.61,12.32-5.25,6.9,.47,13.86,.11,20.79,.11,.54,0,1.09,0,2.15,0Z"/>
  <path class="cls-3" d="M582.31,115.52c-3.43-10.93-6.76-21.51-10.1-32.13-.63,.53-.68,1.26-.88,1.89-6.03,18.37-12.06,36.73-18.02,55.12-.44,1.36-.95,1.84-2.41,1.82-6.74-.09-13.49-.04-20.24-.04-.55,0-1.11,0-1.86,0,1.43-4.7,2.83-9.22,4.18-13.75,8.26-27.62,17.8-54.82,26.71-82.23,.36-1.11,.92-1.36,2-1.35,7.43,.04,14.87,.04,22.3,0,1.09,0,1.61,.25,1.95,1.4,2.99,9.9,6.06,19.79,9.12,29.67,.23,.74,.3,1.43,.04,2.18-4.1,12.12-8.18,24.24-12.27,36.36-.09,.28-.27,.54-.53,1.06Z"/>
  <path class="cls-3" d="M620.19,142.12h-26.52c1.08-3.3,2.12-6.48,3.17-9.67,9.35-28.59,18.71-57.17,28.01-85.77,.47-1.45,1.13-1.86,2.62-1.84,7.37,.09,14.74,.04,22.11,.04,.62,0,1.24,0,2.16,0-10.55,32.51-21.03,64.81-31.55,97.24Z"/>
  <path class="cls-3" d="M827.06,142.09h-26.31V66.86h26.31v75.23Z"/>
  <path class="cls-3" d="M662.43,66.82h26.19v75.23h-26.19V66.82Z"/>
  <path class="cls-3" d="M491.67,44.88c9.3,0,18.29,0,27.27-.02,.85,0,1.15,.33,1.39,1.12,3.2,10.29,6.44,20.57,9.68,30.85,.19,.61,.23,1.17,.03,1.8-4.43,13.91-8.84,27.83-13.27,41.74-.07,.23-.23,.43-.45,.85-8.24-25.5-16.41-50.81-24.65-76.35Z"/>
  <path class="cls-1" d="M134.7,73.78c3.93-3.75,7.75-7.11,11.21-10.81,2.29-2.45,4.72-4.74,7.02-7.17,2.38-2.52,5.01-4.8,7.56-7.16,.22-.21,.41-.39,.59-.65,1.28-1.89,2.77-1.93,4.32-.31,3.29,3.45,6.61,6.89,10,10.24,.72,.71,1.8,1,1.71,2.35-.06,.99-.78,1.35-1.34,1.9-2.23,2.19-3.98,4.81-6.37,6.86-3.82,3.27-7.43,6.77-10.91,10.39-2.33,2.42-4.62,4.89-7.04,7.21-1.45,1.39-2.4,1.17-3.77-.2-3.48-3.46-7.03-6.85-10.53-10.29-.73-.72-1.07-1.8-2.45-2.37Z"/>
  <path class="cls-3" d="M354.37,85.54V45.05h27.22c0,2.56-.18,5.18,.05,7.75,.24,2.79-.75,4.77-2.65,6.78-7.6,8.03-15.02,16.23-22.52,24.35-.56,.61-1.02,1.4-2.11,1.6Z"/>
  <path class="cls-3" d="M814.08,58.51c-4.2-.07-7.99-.89-11.27-3.57-7.46-6.1-6.56-17.82,2.01-22.31,6.53-3.43,13.22-3.15,19.55,.82,7.57,4.75,7.36,16.13,.57,21.53-3.23,2.57-6.97,3.47-10.86,3.52Z"/>
  <path class="cls-3" d="M677.39,58.46c-7.81,.03-12.86-1.89-16.07-7.1-3.94-6.38-1.69-15.12,4.95-18.63,6.52-3.45,13.24-3.31,19.58,.63,7.39,4.58,7.16,14.21,2.66,19.67-3.37,4.09-7.93,5.38-11.11,5.43Z"/>
  <path class="cls-3" d="M418.02,194.02v3.06h10.32c.31,1.15,.16,2.19,.11,3.45h-8.47c2.74,3.6,5.63,6.42,9.29,8.56-.91,.99-1.74,1.89-2.6,2.82-3.5-2.24-5.92-5.48-8.65-9.03v10.8c-1.32,.39-2.47,.15-3.77,.19v-10.96c-2.89,3.95-5.76,7.16-9.7,9.4-.74-.86-1.49-1.75-2.35-2.76,3.95-2.16,7.19-5,9.93-8.85h-8.45c-.44-1.23-.22-2.27-.22-3.47h10.48c.47-1.09,.33-2.04,.15-3.15h-8.51v-16.09h20.55v16.03h-8.13Zm-3.69-6.48h-5.43c.07,1.22-.2,2.36,.17,3.54,1.82,.02,3.53,.19,5.23-.11,.22-1.17,.18-2.21,.03-3.44Zm.1-3.11c0-.9-.02-1.69,0-2.48,.02-.71-.32-1-1.01-1-1.46,.01-2.93,0-4.42,0v3.47h5.42Zm8.24,3.13c-1.65-.16-3.22-.17-4.82,0,0,1.28-.21,2.39,.15,3.53,1.64,0,3.16,.24,4.66-.15v-3.38Zm.1-3.13c-.14-1.3,.29-2.43-.38-3.52-1.54,.18-3.03-.22-4.48,.25v3.27h4.86Z"/>
  <path class="cls-3" d="M466.89,203.02c-.05,1.11-.11,2.22-.17,3.51h-7.22v7.26h-4.03v-7.21h-7.53v-3.68h7.38v-10.93c-2.33,4.09-4.89,7.4-7.7,10.51-2.1,1.75-4.05,3.7-6.64,5.06-.85-.95-1.7-1.91-2.66-2.99,3.26-1.92,6.08-4.23,8.53-6.99,2.44-2.75,4.53-5.74,6.26-9.25h-13.3v-3.73h15.53v-8.15c1.37-.41,2.61-.11,4.01-.26v8.31h15.88v3.71h-13.5c3.59,6.88,8.37,12.18,14.98,15.99-.86,1.04-1.75,2.1-2.7,3.25-2.57-1.21-4.57-3.18-6.72-4.93-2.85-3.11-5.41-6.45-7.72-10.48v10.69c2.5,.35,4.93-.19,7.31,.31Z"/>
  <path class="cls-3" d="M640.75,212.55v-3.29h11.78v-4.96h-8.74v-3.39h8.6c.43-1.47,.22-2.82,.17-4.32h-8.37v-18.37h20.72v18.25h-8.3c-.29,1.49-.2,2.78-.06,4.32h8.97v3.44h-8.95c-.25,1.72-.18,3.2-.06,4.9h10.28v3.4h-26.05Zm12.1-23.75h-5.32c-.04,1.55-.26,3,.14,4.44h5.18v-4.44Zm8.59-.01c-1.75-.1-3.48-.21-5.3,.06-.01,1.56-.27,3.02,.19,4.55,1.75-.14,3.41,.23,5.11-.24v-4.37Zm-5.17-3.07c1.73-.04,3.43,.2,5.21-.18-.03-1.49,.23-2.88-.18-4.24h-5.16c-.05,1.49-.18,2.88,.13,4.42Zm-8.67-.09h5.22v-4.37c-1.84-.04-3.55-.21-5.3,.11-.06,1.47-.17,2.82,.08,4.26Z"/>
  <path class="cls-3" d="M345.83,183.42h14.4v-7.1h3.85v7.02h14.66v19.49c-1.15,.38-2.37,.16-3.69,.14-.08-.68-.15-1.27-.23-2h-10.58v12.73c-1.39,.33-2.6,.21-3.98,.12v-12.86h-10.59c-.08,.75-.15,1.42-.23,2.16h-3.6v-19.69Zm3.83,3.73v9.87h10.47v-9.87h-10.47Zm14.61,0v9.9h10.51v-9.9h-10.51Z"/>
  <path class="cls-3" d="M583.38,183.03h6.29c.44-1.29,.14-1.86-1.18-1.83-2.05,.04-4.11,.01-6.23,.01v-2.58h7.24c.61-.81,.22-1.56,.55-2.3h2.89c.51,.55,.07,1.31,.47,2.15h7.19c.45,.97,.31,1.76,.19,2.69h-7.14c-.54,.62-.51,1.14-.23,1.84h6.36c.64,.85,.14,1.71,.51,2.61,2.87-2.55,4.3-5.87,5.48-9.38,1.14,.27,2.15,.51,3.32,.79-.38,1.14-.73,2.17-1.16,3.44h10.49c.48,1.08,.18,1.99,.29,3.19-2.57-.85-3.05,.85-3.7,2.54-.67,1.74-1.64,3.35-2.87,4.88,2.01,1.92,4.42,2.91,7.05,3.88-.68,1-1.29,1.89-1.97,2.87-2.81-.81-5.14-2.44-7.46-4.29-2.45,1.74-4.98,3.28-7.87,4.16-.76-.91-1.47-1.76-2.39-2.87-.33,.6-.6,1.08-.82,1.48-1.98-.99-3.34-2.45-5.46-3.09v4.22c-1.18,.21-2.17,.18-3.3,.03v-4.21c-2.28,1.46-3.93,3.39-6.34,4.28-.64-.7-1.26-1.37-1.98-2.16,2.3-1.31,4.59-2.44,6.68-4.59h-4.89v-7.76Zm16.91,11.78c2.63-.68,4.98-1.9,7.12-3.71-1-1.54-1.96-3-2.92-4.47-1.01,.58-1.36,1.67-2.31,2-.82-.38-1.06-1.41-2.15-1.71v3.84h-5.03c1.36,1.07,2.78,1.79,4.19,2.53,.46,.24,1.18,.34,.78,1.17-.08,.13-.26,.33-.23,.38,.18,.27,.37,.08,.55-.04Zm6.1-11.16c.89,2.05,1.9,3.65,3.34,5.07,1.17-1.59,2.2-3.08,2.44-5.07h-5.78Zm-9.41,1.75c-1.35-.08-2.49-.24-3.64,.11-.19,.92-.22,1.76,.04,2.71,1.21,.08,2.41,.28,3.6-.14v-2.68Zm-10.62,.04v2.8c1.24,.05,2.38,.28,3.52-.18-.03-.93,.25-1.8-.22-2.64-1.07-.15-2.11-.16-3.3,.02Z"/>
  <path class="cls-3" d="M263.48,187.86h19.72v8.11h3.05v3.29c-1.02,.47-2.19-.04-3.44,.38-.11,1.66-.23,3.37-.35,5.06,1.21,.56,2.39,.03,3.51,.45v2.81c-.16,.06-.34,.2-.49,.18-2.37-.31-3.93,.17-4.31,3.02-.21,1.62-1.78,2.52-3.51,2.59-1.61,.07-3.24,.01-4.96,.01-.29-.96-.57-1.9-.85-2.82,2.13-.89,5.53,1.59,6.49-2.77-4.55,0-8.89,0-13.23,0-1.12,0-.79,1.08-1.16,1.77-1.09,.09-2.18-.05-3.41-.31,.53-3.33,1.07-6.64,1.62-10.12h-3.46c-.45-1.16-.14-2.21-.29-3.44h4.07c.59-2.84,.91-5.53,1.02-8.26l-.03,.04Zm15.31,17.06c.42-1.85,.47-3.56,.48-5.37h-5.39c-.19,1.78-.38,3.52-.57,5.37h5.49Zm.88-13.84h-4.95c-.24,1.75-.6,3.48-.26,5.23,6.36,.31,4.81,.63,5.3-4.43,.02-.23-.05-.47-.09-.81Zm-14.81,13.92c1.61,0,2.9-.01,4.2,0,.68,0,1.01-.29,1.08-.97,.14-1.47,.32-2.93,.49-4.49h-4.99c-.25,1.77-.49,3.47-.78,5.46Zm6.58-13.83q-4.68-.63-5.2,3.57c-.04,.36,0,.74,0,1.19,1.53,.18,3.06,.15,4.74,0,.16-1.58,.31-3.11,.47-4.76Z"/>
  <path class="cls-3" d="M322.63,213.78q-1.35-3.45-5.11-3.45h-6.85c-.73,.48-.15,1.26-.66,1.85h-2.94v-10.61h15.33v8.67c1.64,.29,3.11,.21,4.71-.05v-10.94h-24.68v14.61h-3.62v-17.7h32.2c0,3.02,0,6.06,0,9.09,0,1.56,.03,3.13-.02,4.69-.08,2.35-.85,3.27-3.17,3.65-1.72,.28-3.46,.35-5.18,.19Zm-3.64-9.52h-8.65c-.06,1.2-.21,2.27,.09,3.29h8.57c.19-1.13,.18-2.1-.01-3.29Z"/>
  <path class="cls-3" d="M216.14,176.85h4.04v12.15h14.79v3.71h-14.59v15.43h17.47v3.72h-36.59v-3.61h14.87v-31.39Z"/>
  <path class="cls-3" d="M486.45,192.48h7.88v-7.21c-1.8-.65-2.72,.1-3.29,1.72-.49,1.4-1.22,2.71-2.2,3.96-1-.73-1.94-1.41-2.97-2.16,2.65-3.77,3.89-8.05,4.85-12.54,1.26,.26,2.33,.49,3.5,.74-.34,1.54-.64,2.92-1,4.52h11.12v3.56h-5.95v7.36h7.08v3.58h-7.21c-.78,1.65-.42,2.69,.72,3.83,2.33,2.33,4.46,4.86,6.69,7.32-.87,1.07-1.68,2.08-2.57,3.18-2.14-2.67-3.96-5.42-6.36-7.9-1.65,4.66-4.14,8.54-8.1,11.36-.86-.97-1.69-1.89-2.58-2.9,4.87-3.69,7.53-8.56,8.11-14.76h-7.55c-.35-1.24-.13-2.34-.17-3.66Z"/>
  <path class="cls-3" d="M602.08,207.17v2.81h16.65v3.07h-36.8v-2.94h6.22v-6.46c1.24-.53,2.34-.17,3.59-.31v6.57h6.51v-8.2h-13.6c-.4-1.01-.2-1.87-.2-2.87h31.58c.29,.85,.13,1.71,.09,2.81h-14.01v2.61h10.98c.34,.99,.2,1.83,.13,2.9h-11.14Z"/>
  <path class="cls-3" d="M521.73,179.83v32.37h-3.43c-.54-.69-.03-1.57-.41-2.44h-7.19c-.53,.81,0,1.8-.39,2.8h-3.34v-32.73h14.76Zm-3.75,3.6h-7.34v22.59h7.34v-22.59Z"/>
  <path class="cls-3" d="M550.15,179.03h18.65v18.38h-18.65v-18.38Zm3.72,14.85h10.99v-11.21h-10.99v11.21Z"/>
  <path class="cls-3" d="M629.68,209.9c-.3-1.34-.56-2.48-.84-3.76,.85-.28,1.65-.57,2.46-.8,3.34-.94,2.71-.44,2.76-3.73,.04-2.42,0-4.85,0-7.31-1.45-.55-2.85-.11-4.27-.37-.35-1.05-.16-2.14-.11-3.39h4.37c0-1.49,0-2.84,0-4.18s0-2.6,0-4.06h-4.72v-3.36h12.71v3.29h-4.32v8.08c1.11,.55,2.4-.03,3.67,.37,.25,1,.14,2.03,.06,3.09-1.19,.59-2.51-.09-3.75,.48v9.08c1.41-.42,2.69-.8,3.92-1.17,.17,.14,.33,.2,.35,.3q.71,3.09-2.26,4.09c-3.25,1.09-6.5,2.17-10.05,3.36Z"/>
  <path class="cls-3" d="M312.57,179.96v-3.64h3.87v3.52h15.8c.28,1.16,.2,2.14,.08,3.21h-35.4v-3.09h15.65Z"/>
  <path class="cls-3" d="M325.67,185.29v8.36h-21.85v-8.36h21.85Zm-18.29,5.73h14.49c.06-1.13,.19-2.11-.09-3.16h-14.41v3.16Z"/>
  <path class="cls-3" d="M539.46,212.76c-.67-.75-1.33-1.5-2.15-2.42,2.41-1.83,2.3-4.64,2.25-7.46-.05-3.42-.01-6.83-.01-10.42h-5.29v-3.45h8.86v15.73c1.6-.61,2.57-1.88,4.06-2.71,.05,.11,.13,.26,.21,.42q1.28,2.68-1.05,4.6c-2.26,1.87-4.51,3.74-6.88,5.72Z"/>
  <path class="cls-3" d="M396.62,212.31c-.84-.72-1.6-1.37-2.41-2.07,1.99-1.93,2.44-4.22,2.37-6.76-.11-3.67-.03-7.34-.03-11.22h-5.11c-.26-1.18-.18-2.17-.09-3.28h8.72v15.42c1.58-.49,2.28-1.79,3.48-2.43,.7,.8,.84,1.88,1.41,2.93-2.79,2.48-5.56,4.95-8.33,7.42Z"/>
  <path class="cls-3" d="M263.51,187.82c-.75,.89-1.51,1.79-2.34,2.78-1.02-.7-2.03-1.38-3.13-2.14,3.23-3.54,5.18-7.68,6.51-12.25,1.23,.24,2.37,.47,3.71,.73-.43,1.36-.82,2.62-1.29,4.11h18.56v3.45c-5.74,0-11.41,.2-17.05-.08-2.85-.14-4.26,.93-5,3.43,0,0,.03-.04,.03-.04Z"/>
  <path class="cls-3" d="M255.22,198.41c.18-.02,.24-.05,.28-.03q2.81,1.6,1.65,4.64c-1.34,3.48-2.92,6.86-4.67,10.37-1.11-.67-2.19-1.32-3.35-2.02,2.35-4.27,4.27-8.63,6.09-12.96Z"/>
  <path class="cls-3" d="M546.82,211.68c2.98-2.93,4.68-6.45,6.02-10.35,1.3,.3,2.49,.58,3.77,.88-1.4,4.34-3.34,8.19-6.44,11.62-1.07-.69-2.14-1.37-3.34-2.14Z"/>
  <path class="cls-3" d="M571.1,212.15c-1.32,.51-2.45,.95-3.76,1.45-1.32-3.83-3.08-7.42-5.16-10.87,.64-.84,1.65-.86,2.45-1.26,.69-.35,1.1-.05,1.49,.59,1.91,3.14,3.55,6.4,4.98,10.08Z"/>
  <path class="cls-3" d="M542.67,185.55c-2.09-2.1-4.15-4.17-6.25-6.29,.53-.72,1.33-1.39,2.26-2.04,2.28,1.69,4.28,3.62,6.3,5.77-.52,1.12-1.59,1.75-2.31,2.56Z"/>
  <path class="cls-3" d="M401.68,183.02c-.95,.86-1.77,1.6-2.64,2.39-1.9-2.11-3.76-4.17-5.64-6.25,.55-.92,1.44-1.4,2.26-2.18,2.24,1.68,4.13,3.69,6.02,6.04Z"/>
  <path class="cls-3" d="M259.07,180.86c-.81,1.04-1.49,1.91-2.24,2.87-2.04-1.76-4.24-3.13-6.58-4.49,.7-.93,1.32-1.76,2-2.67,2.46,1.15,4.82,2.31,6.82,4.28Z"/>
  <path class="cls-3" d="M250.41,187.45c2.41,1.08,4.74,2.19,6.77,3.94-.75,1.01-1.44,1.95-2.19,2.96-2.06-1.63-4.22-2.96-6.59-4.14,.5-1.09,1.19-1.93,2.01-2.76Z"/>
  <path class="cls-2" d="M414.33,187.54c.15,1.23,.18,2.26-.03,3.44-1.7,.3-3.41,.13-5.23,.11-.37-1.18-.1-2.32-.17-3.54h5.43Z"/>
  <path class="cls-2" d="M414.43,184.43h-5.42v-3.47c1.49,0,2.95,0,4.42,0,.69,0,1.03,.28,1.01,1-.02,.79,0,1.58,0,2.48Z"/>
  <path class="cls-2" d="M422.67,187.56v3.38c-1.5,.39-3.02,.15-4.66,.15-.36-1.14-.15-2.25-.15-3.53,1.59-.16,3.16-.16,4.82,0Z"/>
  <path class="cls-2" d="M422.77,184.43h-4.86v-3.27c1.45-.47,2.94-.06,4.48-.25,.67,1.09,.24,2.21,.38,3.52Z"/>
  <path class="cls-2" d="M447.63,202.49c2.81-3.11,5.37-6.43,7.7-10.51v10.93h-7.38c-.11-.14-.22-.27-.32-.41Z"/>
  <path class="cls-2" d="M466.89,203.02c-2.38-.5-4.81,.04-7.31-.31v-10.69c2.31,4.03,4.87,7.37,7.72,10.48-.14,.17-.27,.35-.41,.52Z"/>
  <path class="cls-2" d="M652.84,188.8v4.44h-5.18c-.4-1.44-.18-2.89-.14-4.44h5.32Z"/>
  <path class="cls-2" d="M661.44,188.79v4.37c-1.7,.47-3.36,.1-5.11,.24-.46-1.54-.2-2.99-.19-4.55,1.82-.27,3.55-.16,5.3-.06Z"/>
  <path class="cls-2" d="M656.27,185.71c-.31-1.54-.19-2.93-.13-4.42h5.16c.41,1.36,.15,2.75,.18,4.24-1.78,.38-3.48,.14-5.21,.18Z"/>
  <path class="cls-2" d="M647.6,185.62c-.25-1.44-.14-2.79-.08-4.26,1.75-.31,3.46-.15,5.3-.11v4.37h-5.22Z"/>
  <path class="cls-2" d="M349.66,187.15h10.47v9.87h-10.47v-9.87Z"/>
  <path class="cls-2" d="M364.27,187.15h10.51v9.9h-10.51v-9.9Z"/>
  <path class="cls-2" d="M599.96,194.47c.4-.83-.31-.93-.78-1.17-1.41-.74-2.83-1.46-4.19-2.53h5.03v-3.84c1.08,.3,1.32,1.32,2.15,1.71,.95-.33,1.3-1.42,2.31-2,.96,1.46,1.91,2.93,2.92,4.47-2.14,1.8-4.49,3.02-7.12,3.71-.11-.11-.21-.23-.32-.34Z"/>
  <path class="cls-2" d="M606.38,183.65h5.78c-.24,1.99-1.27,3.48-2.44,5.07-1.44-1.42-2.44-3.03-3.34-5.07Z"/>
  <path class="cls-2" d="M596.97,185.4v2.68c-1.19,.42-2.39,.22-3.6,.14-.26-.95-.22-1.8-.04-2.71,1.14-.35,2.29-.19,3.64-.11Z"/>
  <path class="cls-2" d="M586.35,185.44c1.19-.18,2.23-.17,3.3-.02,.48,.84,.19,1.71,.22,2.64-1.14,.46-2.28,.23-3.52,.18v-2.8Z"/>
  <path class="cls-2" d="M600.29,194.81c-.18,.13-.37,.32-.55,.04-.04-.06,.14-.25,.22-.38,.11,.11,.21,.23,.32,.34Z"/>
  <path class="cls-2" d="M278.79,204.92h-5.49c.2-1.85,.38-3.59,.57-5.37h5.39c0,1.82-.05,3.52-.48,5.37Z"/>
  <path class="cls-2" d="M279.67,191.09c.04,.33,.11,.57,.09,.81-.49,5.06,1.06,4.74-5.3,4.43-.34-1.76,.03-3.48,.26-5.23h4.95Z"/>
  <path class="cls-2" d="M264.86,205c.28-1.98,.52-3.68,.78-5.46h4.99c-.17,1.56-.35,3.02-.49,4.49-.06,.69-.4,.98-1.08,.97-1.29-.02-2.59,0-4.2,0Z"/>
  <path class="cls-2" d="M271.44,191.18c-.16,1.64-.31,3.17-.47,4.76-1.67,.15-3.2,.18-4.74,0,0-.45-.04-.82,0-1.19q.52-4.2,5.2-3.57Z"/>
  <path class="cls-2" d="M318.99,204.26c.19,1.19,.2,2.16,.01,3.29h-8.57c-.29-1.02-.15-2.09-.09-3.29h8.65Z"/>
  <path class="cls-2" d="M517.97,183.43v22.59h-7.34v-22.59h7.34Z"/>
  <path class="cls-2" d="M553.87,193.88v-11.21h10.99v11.21h-10.99Z"/>
  <path class="cls-2" d="M307.38,191.02v-3.16h14.41c.28,1.05,.15,2.03,.09,3.16h-14.49Z"/>
</svg>